# Blender v2.91.2 OBJ File: 'fullblend.blend'
# www.blender.org
mtllib t1.mtl
o group_0.001_ID6
v 0.256779 0.105441 0.288657
v 0.246816 0.233683 0.298619
v 0.246816 0.105441 0.298619
v 0.256779 0.233683 0.288657
v 0.256779 0.233683 0.288657
v 0.256779 0.105441 0.288657
v 0.246816 0.233683 0.298619
v 0.246816 0.105441 0.298619
v 0.256779 0.233683 0.288657
v 0.256779 0.105441 0.288657
v 0.246816 0.233683 0.298619
v 0.246816 0.105441 0.298619
v 0.244497 0.233683 0.276376
v 0.256779 0.105441 0.288657
v 0.244497 0.105441 0.276376
v 0.256779 0.233683 0.288657
v 0.256779 0.233683 0.288657
v 0.244497 0.233683 0.276376
v 0.256779 0.105441 0.288657
v 0.244497 0.105441 0.276376
v 0.244497 0.105441 0.276376
v 0.244497 0.233683 0.276376
v 0.246816 0.233683 0.298619
v 0.244497 0.233683 0.276376
v 0.234535 0.233683 0.286338
v 0.256779 0.233683 0.288657
v 0.256779 0.233683 0.288657
v 0.246816 0.233683 0.298619
v 0.244497 0.233683 0.276376
v 0.234535 0.233683 0.286338
v 0.234535 0.233683 0.286338
v 0.246816 0.233683 0.298619
v 0.234535 0.105441 0.286338
v 0.246816 0.105441 0.298619
v 0.234535 0.233683 0.286338
v 0.234535 0.233683 0.286338
v 0.246816 0.233683 0.298619
v 0.234535 0.105441 0.286338
v 0.246816 0.105441 0.298619
v 0.234535 0.105441 0.286338
v 0.256779 0.105441 0.288657
v 0.234535 0.105441 0.286338
v 0.244497 0.105441 0.276376
v 0.246816 0.105441 0.298619
v 0.246816 0.105441 0.298619
v 0.256779 0.105441 0.288657
v 0.234535 0.105441 0.286338
v 0.244497 0.105441 0.276376
v 0.234535 0.233683 0.286338
v 0.244497 0.105441 0.276376
v 0.234535 0.105441 0.286338
v 0.244497 0.233683 0.276376
v 0.244497 0.233683 0.276376
v 0.234535 0.233683 0.286338
v 0.244497 0.105441 0.276376
v 0.234535 0.105441 0.286338
vt 0.000000 0.062991
vt -0.548460 -0.000115
vt 0.000000 -0.000115
vt -0.548460 0.062991
vt -0.548460 0.062991
vt 0.000000 0.062991
vt -0.548460 -0.000115
vt 0.000000 -0.000115
vt 0.548460 0.458119
vt 0.000000 0.521110
vt 0.000000 0.458119
vt 0.548460 0.521110
vt 0.548460 0.521110
vt 0.548460 0.458119
vt 0.000000 0.521110
vt 0.000000 0.458119
vt 0.341848 -0.000115
vt 0.300526 0.062991
vt 0.300526 -0.000115
vt 0.341848 0.062991
vt 0.341848 0.062991
vt 0.341848 -0.000115
vt 0.300526 0.062991
vt 0.300526 -0.000115
vt -0.548460 0.521110
vt 0.000000 0.458119
vt 0.000000 0.521110
vt -0.548460 0.458119
vt -0.548460 0.458119
vt -0.548460 0.521110
vt 0.000000 0.458119
vt 0.000000 0.521110
vt -0.341848 0.062991
vt -0.300526 -0.000115
vt -0.300526 0.062991
vt -0.341848 -0.000115
vt -0.341848 -0.000115
vt -0.341848 0.062991
vt -0.300526 -0.000115
vt -0.300526 0.062991
vt 0.548460 -0.000115
vt 0.000000 0.062991
vt 0.000000 -0.000115
vt 0.548460 0.062991
vt 0.548460 0.062991
vt 0.548460 -0.000115
vt 0.000000 0.062991
vt 0.000000 -0.000115
vn 0.7071 0.0000 0.7071
vn -0.7071 0.0000 -0.7071
vn 0.7071 -0.0000 -0.7071
vn -0.7071 0.0000 0.7071
vn 0.0000 1.0000 -0.0000
vn -0.0000 -1.0000 0.0000
usemtl (null)
s off
f 1/1/1 2/2/1 3/3/1
f 2/2/1 1/1/1 4/4/1
f 5/5/2 6/6/2 7/7/2
f 8/8/2 7/7/2 6/6/2
f 13/9/3 14/10/3 15/11/3
f 14/10/3 13/9/3 16/12/3
f 17/13/4 18/14/4 19/15/4
f 20/16/4 19/15/4 18/14/4
f 23/17/5 24/18/5 25/19/5
f 24/18/5 23/17/5 26/20/5
f 27/21/6 28/22/6 29/23/6
f 30/24/6 29/23/6 28/22/6
f 32/25/4 33/26/4 34/27/4
f 33/26/4 32/25/4 35/28/4
f 36/29/3 37/30/3 38/31/3
f 39/32/3 38/31/3 37/30/3
f 41/33/6 42/34/6 43/35/6
f 42/34/6 41/33/6 44/36/6
f 45/37/5 46/38/5 47/39/5
f 48/40/5 47/39/5 46/38/5
f 49/41/2 50/42/2 51/43/2
f 50/42/2 49/41/2 52/44/2
f 53/45/1 54/46/1 55/47/1
f 56/48/1 55/47/1 54/46/1
l 9 10
l 9 11
l 11 12
l 10 12
l 10 21
l 21 22
l 22 9
l 22 31
l 31 11
l 12 40
l 40 31
l 21 40
o group_1.001_ID24
v 0.132503 0.105441 0.184270
v 0.142447 0.233683 0.174326
v 0.132503 0.233683 0.184270
v 0.142447 0.105441 0.174326
v 0.142447 0.105441 0.174326
v 0.132503 0.105441 0.184270
v 0.142447 0.233683 0.174326
v 0.132503 0.233683 0.184270
v 0.142447 0.233683 0.174326
v 0.142447 0.105441 0.174326
v 0.132503 0.233683 0.184270
v 0.132503 0.105441 0.184270
v 0.130165 0.233683 0.162044
v 0.142447 0.105441 0.174326
v 0.130165 0.105441 0.162044
v 0.142447 0.233683 0.174326
v 0.142447 0.233683 0.174326
v 0.130165 0.233683 0.162044
v 0.142447 0.105441 0.174326
v 0.130165 0.105441 0.162044
v 0.130165 0.105441 0.162044
v 0.130165 0.233683 0.162044
v 0.132503 0.233683 0.184270
v 0.130165 0.233683 0.162044
v 0.120221 0.233683 0.171988
v 0.142447 0.233683 0.174326
v 0.142447 0.233683 0.174326
v 0.132503 0.233683 0.184270
v 0.130165 0.233683 0.162044
v 0.120221 0.233683 0.171988
v 0.120221 0.233683 0.171988
v 0.132503 0.233683 0.184270
v 0.120221 0.105441 0.171988
v 0.132503 0.105441 0.184270
v 0.120221 0.233683 0.171988
v 0.120221 0.233683 0.171988
v 0.132503 0.233683 0.184270
v 0.120221 0.105441 0.171988
v 0.132503 0.105441 0.184270
v 0.120221 0.105441 0.171988
v 0.142447 0.105441 0.174326
v 0.120221 0.105441 0.171988
v 0.130165 0.105441 0.162044
v 0.132503 0.105441 0.184270
v 0.132503 0.105441 0.184270
v 0.142447 0.105441 0.174326
v 0.120221 0.105441 0.171988
v 0.130165 0.105441 0.162044
v 0.130165 0.233683 0.162044
v 0.120221 0.105441 0.171988
v 0.120221 0.233683 0.171988
v 0.130165 0.105441 0.162044
v 0.130165 0.105441 0.162044
v 0.130165 0.233683 0.162044
v 0.120221 0.105441 0.171988
v 0.120221 0.233683 0.171988
vt 0.000000 0.000000
vt -0.548460 0.062991
vt -0.548460 -0.000000
vt 0.000000 0.062991
vt 0.000000 0.062991
vt 0.000000 0.000000
vt -0.548460 0.062991
vt -0.548460 -0.000000
vt 0.548460 0.377948
vt 0.000000 0.440939
vt 0.000000 0.377948
vt 0.548460 0.440939
vt 0.548460 0.440939
vt 0.548460 0.377948
vt 0.000000 0.440939
vt 0.000000 0.377948
vt 0.289256 -0.000000
vt 0.247934 0.062991
vt 0.247934 -0.000000
vt 0.289256 0.062991
vt 0.289256 0.062991
vt 0.289256 -0.000000
vt 0.247934 0.062991
vt 0.247934 -0.000000
vt -0.548460 0.440939
vt 0.000000 0.377948
vt 0.000000 0.440939
vt -0.548460 0.377948
vt -0.548460 0.377948
vt -0.548460 0.440939
vt 0.000000 0.377948
vt 0.000000 0.440939
vt -0.289256 0.062991
vt -0.247934 0.000000
vt -0.247934 0.062991
vt -0.289256 0.000000
vt -0.289256 0.000000
vt -0.289256 0.062991
vt -0.247934 0.000000
vt -0.247934 0.062991
vt 0.548460 0.062991
vt 0.000000 0.000000
vt 0.548460 -0.000000
vt 0.000000 0.062991
vt 0.000000 0.062991
vt 0.548460 0.062991
vt 0.000000 0.000000
vt 0.548460 -0.000000
vn 0.7071 -0.0000 0.7071
vn -0.7071 0.0000 -0.7071
vn 0.7071 0.0000 -0.7071
vn -0.7071 0.0000 0.7071
vn 0.0000 1.0000 0.0000
vn 0.0000 -1.0000 -0.0000
usemtl (null)
s off
f 57/49/7 58/50/7 59/51/7
f 58/50/7 57/49/7 60/52/7
f 61/53/8 62/54/8 63/55/8
f 64/56/8 63/55/8 62/54/8
f 69/57/9 70/58/9 71/59/9
f 70/58/9 69/57/9 72/60/9
f 73/61/10 74/62/10 75/63/10
f 76/64/10 75/63/10 74/62/10
f 79/65/11 80/66/11 81/67/11
f 80/66/11 79/65/11 82/68/11
f 83/69/12 84/70/12 85/71/12
f 86/72/12 85/71/12 84/70/12
f 88/73/10 89/74/10 90/75/10
f 89/74/10 88/73/10 91/76/10
f 92/77/9 93/78/9 94/79/9
f 95/80/9 94/79/9 93/78/9
f 97/81/12 98/82/12 99/83/12
f 98/82/12 97/81/12 100/84/12
f 101/85/11 102/86/11 103/87/11
f 104/88/11 103/87/11 102/86/11
f 105/89/8 106/90/8 107/91/8
f 106/90/8 105/89/8 108/92/8
f 109/93/7 110/94/7 111/95/7
f 112/96/7 111/95/7 110/94/7
l 65 66
l 65 67
l 67 68
l 66 68
l 66 77
l 77 78
l 78 65
l 78 87
l 87 67
l 68 96
l 96 87
l 77 96
o group_2.001_ID35
v 0.344039 0.105441 -0.027267
v 0.334095 0.233683 -0.017323
v 0.334095 0.105441 -0.017323
v 0.344039 0.233683 -0.027267
v 0.344039 0.233683 -0.027267
v 0.344039 0.105441 -0.027267
v 0.334095 0.233683 -0.017323
v 0.334095 0.105441 -0.017323
v 0.344039 0.233683 -0.027267
v 0.344039 0.105441 -0.027267
v 0.334095 0.233683 -0.017323
v 0.334095 0.105441 -0.017323
v 0.331758 0.233683 -0.039549
v 0.344039 0.105441 -0.027267
v 0.331758 0.105441 -0.039549
v 0.344039 0.233683 -0.027267
v 0.344039 0.233683 -0.027267
v 0.331758 0.233683 -0.039549
v 0.344039 0.105441 -0.027267
v 0.331758 0.105441 -0.039549
v 0.331758 0.105441 -0.039549
v 0.331758 0.233683 -0.039549
v 0.334095 0.233683 -0.017323
v 0.331758 0.233683 -0.039549
v 0.321814 0.233683 -0.029605
v 0.344039 0.233683 -0.027267
v 0.344039 0.233683 -0.027267
v 0.334095 0.233683 -0.017323
v 0.331758 0.233683 -0.039549
v 0.321814 0.233683 -0.029605
v 0.321814 0.233683 -0.029605
v 0.334095 0.233683 -0.017323
v 0.321814 0.105441 -0.029605
v 0.334095 0.105441 -0.017323
v 0.321814 0.233683 -0.029605
v 0.321814 0.233683 -0.029605
v 0.334095 0.233683 -0.017323
v 0.321814 0.105441 -0.029605
v 0.334095 0.105441 -0.017323
v 0.321814 0.105441 -0.029605
v 0.344039 0.105441 -0.027267
v 0.321814 0.105441 -0.029605
v 0.331758 0.105441 -0.039549
v 0.334095 0.105441 -0.017323
v 0.334095 0.105441 -0.017323
v 0.344039 0.105441 -0.027267
v 0.321814 0.105441 -0.029605
v 0.331758 0.105441 -0.039549
v 0.331758 0.233683 -0.039549
v 0.321814 0.105441 -0.029605
v 0.321814 0.233683 -0.029605
v 0.331758 0.105441 -0.039549
v 0.331758 0.105441 -0.039549
v 0.331758 0.233683 -0.039549
v 0.321814 0.105441 -0.029605
v 0.321814 0.233683 -0.029605
vt 0.000000 0.062991
vt -0.548460 0.000000
vt 0.000000 0.000000
vt -0.548460 0.062991
vt -0.548460 0.062991
vt 0.000000 0.062991
vt -0.548460 0.000000
vt 0.000000 0.000000
vt 0.548460 -0.137436
vt 0.000000 -0.074444
vt 0.000000 -0.137436
vt 0.548460 -0.074444
vt 0.548460 -0.074444
vt 0.548460 -0.137436
vt 0.000000 -0.074444
vt 0.000000 -0.137436
vt -0.048835 -0.000000
vt -0.090158 0.062991
vt -0.090158 -0.000000
vt -0.048835 0.062991
vt -0.048835 0.062991
vt -0.048835 -0.000000
vt -0.090158 0.062991
vt -0.090158 -0.000000
vt -0.548460 -0.074444
vt 0.000000 -0.137436
vt 0.000000 -0.074444
vt -0.548460 -0.137436
vt -0.548460 -0.137436
vt -0.548460 -0.074444
vt 0.000000 -0.137436
vt 0.000000 -0.074444
vt 0.048835 0.062991
vt 0.090158 0.000000
vt 0.090158 0.062991
vt 0.048835 0.000000
vt 0.048835 0.000000
vt 0.048835 0.062991
vt 0.090158 0.000000
vt 0.090158 0.062991
vt 0.548460 0.062991
vt 0.000000 0.000000
vt 0.548460 0.000000
vt 0.000000 0.062991
vt 0.000000 0.062991
vt 0.548460 0.062991
vt 0.000000 0.000000
vt 0.548460 0.000000
vn 0.7071 0.0000 0.7071
vn -0.7071 0.0000 -0.7071
vn 0.7071 0.0000 -0.7071
vn -0.7071 0.0000 0.7071
vn 0.0000 1.0000 -0.0000
vn -0.0000 -1.0000 -0.0000
usemtl (null)
s off
f 113/97/13 114/98/13 115/99/13
f 114/98/13 113/97/13 116/100/13
f 117/101/14 118/102/14 119/103/14
f 120/104/14 119/103/14 118/102/14
f 125/105/15 126/106/15 127/107/15
f 126/106/15 125/105/15 128/108/15
f 129/109/16 130/110/16 131/111/16
f 132/112/16 131/111/16 130/110/16
f 135/113/17 136/114/17 137/115/17
f 136/114/17 135/113/17 138/116/17
f 139/117/18 140/118/18 141/119/18
f 142/120/18 141/119/18 140/118/18
f 144/121/16 145/122/16 146/123/16
f 145/122/16 144/121/16 147/124/16
f 148/125/15 149/126/15 150/127/15
f 151/128/15 150/127/15 149/126/15
f 153/129/18 154/130/18 155/131/18
f 154/130/18 153/129/18 156/132/18
f 157/133/17 158/134/17 159/135/17
f 160/136/17 159/135/17 158/134/17
f 161/137/14 162/138/14 163/139/14
f 162/138/14 161/137/14 164/140/14
f 165/141/13 166/142/13 167/143/13
f 168/144/13 167/143/13 166/142/13
l 121 122
l 121 123
l 123 124
l 122 124
l 122 133
l 133 134
l 134 121
l 134 143
l 143 123
l 124 152
l 152 143
l 133 152
o group_4.001_ID57
v 0.458371 0.105441 0.087065
v 0.448427 0.233683 0.097009
v 0.448427 0.105441 0.097009
v 0.458371 0.233683 0.087065
v 0.458371 0.233683 0.087065
v 0.458371 0.105441 0.087065
v 0.448427 0.233683 0.097009
v 0.448427 0.105441 0.097009
v 0.458371 0.233683 0.087065
v 0.458371 0.105441 0.087065
v 0.448427 0.233683 0.097009
v 0.448427 0.105441 0.097009
v 0.446089 0.233683 0.074783
v 0.458371 0.105441 0.087065
v 0.446089 0.105441 0.074783
v 0.458371 0.233683 0.087065
v 0.458371 0.233683 0.087065
v 0.446089 0.233683 0.074783
v 0.458371 0.105441 0.087065
v 0.446089 0.105441 0.074783
v 0.446089 0.105441 0.074783
v 0.446089 0.233683 0.074783
v 0.448427 0.233683 0.097009
v 0.446089 0.233683 0.074783
v 0.436145 0.233683 0.084727
v 0.458371 0.233683 0.087065
v 0.458371 0.233683 0.087065
v 0.448427 0.233683 0.097009
v 0.446089 0.233683 0.074783
v 0.436145 0.233683 0.084727
v 0.436145 0.233683 0.084727
v 0.448427 0.233683 0.097009
v 0.436145 0.105441 0.084727
v 0.448427 0.105441 0.097009
v 0.436145 0.233683 0.084727
v 0.436145 0.233683 0.084727
v 0.448427 0.233683 0.097009
v 0.436145 0.105441 0.084727
v 0.448427 0.105441 0.097009
v 0.436145 0.105441 0.084727
v 0.458371 0.105441 0.087065
v 0.436145 0.105441 0.084727
v 0.446089 0.105441 0.074783
v 0.448427 0.105441 0.097009
v 0.448427 0.105441 0.097009
v 0.458371 0.105441 0.087065
v 0.436145 0.105441 0.084727
v 0.446089 0.105441 0.074783
v 0.446089 0.233683 0.074783
v 0.436145 0.105441 0.084727
v 0.436145 0.233683 0.084727
v 0.446089 0.105441 0.074783
v 0.446089 0.105441 0.074783
v 0.446089 0.233683 0.074783
v 0.436145 0.105441 0.084727
v 0.436145 0.233683 0.084727
vt 0.000000 0.062991
vt -0.548460 0.000000
vt 0.000000 0.000000
vt -0.548460 0.062991
vt -0.548460 0.062991
vt 0.000000 0.062991
vt -0.548460 0.000000
vt 0.000000 0.000000
vt 0.548460 0.343589
vt 0.000000 0.406580
vt 0.000000 0.343589
vt 0.548460 0.406580
vt 0.548460 0.406580
vt 0.548460 0.343589
vt 0.000000 0.406580
vt 0.000000 0.343589
vt 0.266717 -0.000000
vt 0.225394 0.062991
vt 0.225394 -0.000000
vt 0.266717 0.062991
vt 0.266717 0.062991
vt 0.266717 -0.000000
vt 0.225394 0.062991
vt 0.225394 -0.000000
vt -0.548460 0.406580
vt 0.000000 0.343589
vt 0.000000 0.406580
vt -0.548460 0.343589
vt -0.548460 0.343589
vt -0.548460 0.406580
vt 0.000000 0.343589
vt 0.000000 0.406580
vt -0.266717 0.062991
vt -0.225394 0.000000
vt -0.225394 0.062991
vt -0.266717 0.000000
vt -0.266717 0.000000
vt -0.266717 0.062991
vt -0.225394 0.000000
vt -0.225394 0.062991
vt 0.548460 0.062991
vt 0.000000 0.000000
vt 0.548460 0.000000
vt 0.000000 0.062991
vt 0.000000 0.062991
vt 0.548460 0.062991
vt 0.000000 0.000000
vt 0.548460 0.000000
vn 0.7071 0.0000 0.7071
vn -0.7071 0.0000 -0.7071
vn 0.7071 0.0000 -0.7071
vn -0.7071 0.0000 0.7071
vn 0.0000 1.0000 -0.0000
vn -0.0000 -1.0000 0.0000
usemtl (null)
s off
f 169/145/19 170/146/19 171/147/19
f 170/146/19 169/145/19 172/148/19
f 173/149/20 174/150/20 175/151/20
f 176/152/20 175/151/20 174/150/20
f 181/153/21 182/154/21 183/155/21
f 182/154/21 181/153/21 184/156/21
f 185/157/22 186/158/22 187/159/22
f 188/160/22 187/159/22 186/158/22
f 191/161/23 192/162/23 193/163/23
f 192/162/23 191/161/23 194/164/23
f 195/165/24 196/166/24 197/167/24
f 198/168/24 197/167/24 196/166/24
f 200/169/22 201/170/22 202/171/22
f 201/170/22 200/169/22 203/172/22
f 204/173/21 205/174/21 206/175/21
f 207/176/21 206/175/21 205/174/21
f 209/177/24 210/178/24 211/179/24
f 210/178/24 209/177/24 212/180/24
f 213/181/23 214/182/23 215/183/23
f 216/184/23 215/183/23 214/182/23
f 217/185/20 218/186/20 219/187/20
f 218/186/20 217/185/20 220/188/20
f 221/189/19 222/190/19 223/191/19
f 224/192/19 223/191/19 222/190/19
l 177 178
l 177 179
l 179 180
l 178 180
l 178 189
l 189 190
l 190 177
l 190 199
l 199 179
l 180 208
l 208 199
l 189 208
