# Blender v2.91.2 OBJ File: 'fullblend.blend'
# www.blender.org
mtllib t2.mtl
o group_6.001_ID79
v 0.142447 0.105441 0.174326
v 0.244497 0.130036 0.276376
v 0.244497 0.105441 0.276376
v 0.142447 0.130036 0.174326
v 0.142447 0.130036 0.174326
v 0.142447 0.105441 0.174326
v 0.244497 0.130036 0.276376
v 0.244497 0.105441 0.276376
v 0.244497 0.105441 0.276376
v 0.142447 0.105441 0.174326
v 0.142447 0.130036 0.174326
v 0.244497 0.130036 0.276376
v 0.142447 0.105441 0.174326
v 0.240519 0.105441 0.280353
v 0.138469 0.105441 0.178303
v 0.244497 0.105441 0.276376
v 0.244497 0.105441 0.276376
v 0.142447 0.105441 0.174326
v 0.240519 0.105441 0.280353
v 0.138469 0.105441 0.178303
v 0.240519 0.105441 0.280353
v 0.138469 0.105441 0.178303
v 0.138469 0.130036 0.178303
v 0.142447 0.105441 0.174326
v 0.138469 0.105441 0.178303
v 0.142447 0.130036 0.174326
v 0.142447 0.130036 0.174326
v 0.138469 0.130036 0.178303
v 0.142447 0.105441 0.174326
v 0.138469 0.105441 0.178303
v 0.138469 0.130036 0.178303
v 0.244497 0.130036 0.276376
v 0.138469 0.130036 0.178303
v 0.240519 0.130036 0.280353
v 0.142447 0.130036 0.174326
v 0.142447 0.130036 0.174326
v 0.244497 0.130036 0.276376
v 0.138469 0.130036 0.178303
v 0.240519 0.130036 0.280353
v 0.240519 0.130036 0.280353
v 0.244497 0.130036 0.276376
v 0.240519 0.105441 0.280353
v 0.244497 0.105441 0.276376
v 0.240519 0.130036 0.280353
v 0.240519 0.130036 0.280353
v 0.244497 0.130036 0.276376
v 0.240519 0.105441 0.280353
v 0.244497 0.105441 0.276376
v 0.138469 0.130036 0.178303
v 0.240519 0.105441 0.280353
v 0.240519 0.130036 0.280353
v 0.138469 0.105441 0.178303
v 0.138469 0.105441 0.178303
v 0.138469 0.130036 0.178303
v 0.240519 0.105441 0.280353
v 0.240519 0.130036 0.280353
vt -0.054846 -0.000000
vt -0.398197 0.160342
vt -0.398197 -0.000000
vt -0.054846 0.160342
vt -0.054846 0.160342
vt -0.054846 -0.000000
vt -0.398197 0.160342
vt -0.398197 -0.000000
vt -0.054846 0.025197
vt -0.398197 -0.000000
vt -0.054846 -0.000000
vt -0.398197 0.025197
vt -0.398197 0.025197
vt -0.054846 0.025197
vt -0.398197 -0.000000
vt -0.054846 -0.000000
vt 0.105184 -0.000000
vt -0.000000 0.025197
vt -0.000000 -0.000000
vt 0.105184 0.025197
vt 0.105184 0.025197
vt 0.105184 -0.000000
vt -0.000000 0.025197
vt -0.000000 -0.000000
vt 0.398197 0.025197
vt 0.054846 -0.000000
vt 0.398197 -0.000000
vt 0.054846 0.025197
vt 0.054846 0.025197
vt 0.398197 0.025197
vt 0.054846 -0.000000
vt 0.398197 -0.000000
vt -0.105184 0.025197
vt 0.000000 0.000000
vt 0.000000 0.025197
vt -0.105184 -0.000000
vt -0.105184 -0.000000
vt -0.105184 0.025197
vt 0.000000 0.000000
vt 0.000000 0.025197
vt 0.054846 0.160342
vt 0.398197 0.000000
vt 0.398197 0.160342
vt 0.054846 0.000000
vt 0.054846 0.000000
vt 0.054846 0.160342
vt 0.398197 0.000000
vt 0.398197 0.160342
vn 0.7071 0.0000 -0.7071
vn -0.7071 -0.0000 0.7071
vn -0.0000 -1.0000 0.0000
vn 0.0000 1.0000 0.0000
vn -0.7071 0.0000 -0.7071
vn 0.7071 0.0000 0.7071
usemtl (null)
s off
f 1/1/1 2/2/1 3/3/1
f 2/2/1 1/1/1 4/4/1
f 5/5/2 6/6/2 7/7/2
f 8/8/2 7/7/2 6/6/2
f 13/9/3 14/10/3 15/11/3
f 14/10/3 13/9/3 16/12/3
f 17/13/4 18/14/4 19/15/4
f 20/16/4 19/15/4 18/14/4
f 23/17/5 24/18/5 25/19/5
f 24/18/5 23/17/5 26/20/5
f 27/21/6 28/22/6 29/23/6
f 30/24/6 29/23/6 28/22/6
f 32/25/4 33/26/4 34/27/4
f 33/26/4 32/25/4 35/28/4
f 36/29/3 37/30/3 38/31/3
f 39/32/3 38/31/3 37/30/3
f 41/33/6 42/34/6 43/35/6
f 42/34/6 41/33/6 44/36/6
f 45/37/5 46/38/5 47/39/5
f 48/40/5 47/39/5 46/38/5
f 49/41/2 50/42/2 51/43/2
f 50/42/2 49/41/2 52/44/2
f 53/45/1 54/46/1 55/47/1
f 56/48/1 55/47/1 54/46/1
l 9 10
l 10 11
l 11 12
l 12 9
l 21 22
l 22 10
l 21 9
l 22 31
l 31 11
l 31 40
l 40 12
l 40 21
o group_10.001_ID123
v 0.445078 0.105441 0.093659
v 0.446194 0.105441 0.094776
v 0.253429 0.105441 0.285308
v 0.254545 0.105441 0.286424
v 0.446194 0.105441 0.094776
v 0.253429 0.105441 0.285308
v 0.254545 0.105441 0.286424
v 0.445078 0.105441 0.093659
v 0.445078 0.105441 0.093659
v 0.253429 0.105441 0.285308
v 0.254545 0.105441 0.286424
v 0.446194 0.105441 0.094776
v 0.445078 0.105441 0.093659
v 0.253429 0.105441 0.285308
v 0.445078 0.128279 0.093659
v 0.253429 0.128279 0.285308
v 0.253429 0.105441 0.285308
v 0.445078 0.128279 0.093659
v 0.253429 0.128279 0.285308
v 0.445078 0.105441 0.093659
v 0.253429 0.128279 0.285308
v 0.445078 0.128279 0.093659
v 0.253429 0.128279 0.285308
v 0.253429 0.105441 0.285308
v 0.254545 0.128279 0.286424
v 0.254545 0.105441 0.286424
v 0.253429 0.105441 0.285308
v 0.254545 0.128279 0.286424
v 0.254545 0.105441 0.286424
v 0.253429 0.128279 0.285308
v 0.254545 0.128279 0.286424
v 0.254545 0.105441 0.286424
v 0.446194 0.105441 0.094776
v 0.254545 0.128279 0.286424
v 0.446194 0.128279 0.094776
v 0.446194 0.105441 0.094776
v 0.254545 0.128279 0.286424
v 0.446194 0.128279 0.094776
v 0.254545 0.105441 0.286424
v 0.446194 0.128279 0.094776
v 0.445078 0.105441 0.093659
v 0.445078 0.128279 0.093659
v 0.446194 0.105441 0.094776
v 0.446194 0.128279 0.094776
v 0.445078 0.128279 0.093659
v 0.446194 0.105441 0.094776
v 0.446194 0.128279 0.094776
v 0.445078 0.105441 0.093659
v 0.446194 0.128279 0.094776
v 0.445078 0.128279 0.093659
v 0.254545 0.128279 0.286424
v 0.253429 0.128279 0.285308
v 0.445078 0.128279 0.093659
v 0.254545 0.128279 0.286424
v 0.253429 0.128279 0.285308
v 0.446194 0.128279 0.094776
vt 0.796394 0.005726
vt 0.000000 0.005726
vt 0.796394 -0.000000
vt 0.000000 -0.000000
vt 0.796394 -0.000000
vt 0.000000 -0.000000
vt 0.000000 0.005726
vt 0.796394 0.005726
vt -0.796394 0.355042
vt -0.796394 0.206153
vt -0.000000 0.355042
vt 0.000000 0.206153
vt -0.000000 0.355042
vt 0.000000 0.206153
vt -0.796394 0.206153
vt -0.796394 0.355042
vt -0.003757 0.206153
vt 0.000000 0.206153
vt -0.003757 0.355042
vt 0.000000 0.355042
vt -0.003757 0.355042
vt 0.000000 0.355042
vt 0.000000 0.206153
vt -0.003757 0.206153
vt 0.000000 0.355042
vt 0.000000 0.206153
vt 0.796394 0.355042
vt 0.796394 0.206153
vt 0.796394 0.355042
vt 0.796394 0.206153
vt 0.000000 0.206153
vt 0.000000 0.355042
vt 0.003757 0.355042
vt -0.000000 0.355042
vt 0.003757 0.206153
vt -0.000000 0.206153
vt 0.003757 0.206153
vt -0.000000 0.206153
vt -0.000000 0.355042
vt 0.003757 0.355042
vt -0.796394 -0.000000
vt 0.000000 -0.000000
vt -0.796394 0.005726
vt 0.000000 0.005726
vt -0.796394 0.005726
vt 0.000000 0.005726
vt 0.000000 -0.000000
vt -0.796394 -0.000000
vn 0.0000 1.0000 0.0000
vn -0.0000 -1.0000 0.0000
vn 0.7071 0.0000 0.7071
vn -0.7071 0.0000 -0.7071
vn 0.7071 0.0000 -0.7071
vn -0.7071 0.0000 0.7071
usemtl (null)
s off
f 57/49/7 59/50/7 58/51/7
f 60/52/7 58/51/7 59/50/7
f 61/53/8 63/54/8 62/55/8
f 62/55/8 64/56/8 61/53/8
f 69/57/9 71/58/9 70/59/9
f 72/60/9 70/59/9 71/58/9
f 73/61/10 75/62/10 74/63/10
f 74/63/10 76/64/10 73/61/10
f 79/65/11 81/66/11 80/67/11
f 82/68/11 80/67/11 81/66/11
f 83/69/12 85/70/12 84/71/12
f 84/71/12 86/72/12 83/69/12
f 88/73/10 90/74/10 89/75/10
f 91/76/10 89/75/10 90/74/10
f 92/77/9 94/78/9 93/79/9
f 93/79/9 95/80/9 92/77/9
f 97/81/12 99/82/12 98/83/12
f 100/84/12 98/83/12 99/82/12
f 101/85/11 103/86/11 102/87/11
f 102/87/11 104/88/11 101/85/11
f 105/89/8 107/90/8 106/91/8
f 108/92/8 106/91/8 107/90/8
f 109/93/7 111/94/7 110/95/7
f 110/95/7 112/96/7 109/93/7
l 65 66
l 66 67
l 68 67
l 65 68
l 66 77
l 78 65
l 77 78
l 77 87
l 67 87
l 87 96
l 96 68
l 78 96
o group_12.001_ID145
v 0.321091 0.111063 -0.028882
v 0.226170 0.127752 0.066039
v 0.321091 0.127752 -0.028882
v 0.226170 0.111063 0.066039
v 0.226170 0.111063 0.066039
v 0.321091 0.111063 -0.028882
v 0.226170 0.127752 0.066039
v 0.321091 0.127752 -0.028882
v 0.321091 0.111063 -0.028882
v 0.321091 0.127752 -0.028882
v 0.226170 0.111063 0.066039
v 0.226170 0.127752 0.066039
v 0.326003 0.127752 -0.023969
v 0.321091 0.111063 -0.028882
v 0.321091 0.127752 -0.028882
v 0.326003 0.111063 -0.023969
v 0.326003 0.111063 -0.023969
v 0.326003 0.127752 -0.023969
v 0.321091 0.111063 -0.028882
v 0.321091 0.127752 -0.028882
v 0.326003 0.127752 -0.023969
v 0.326003 0.111063 -0.023969
v 0.321091 0.111063 -0.028882
v 0.231083 0.111063 0.070951
v 0.226170 0.111063 0.066039
v 0.326003 0.111063 -0.023969
v 0.326003 0.111063 -0.023969
v 0.321091 0.111063 -0.028882
v 0.231083 0.111063 0.070951
v 0.226170 0.111063 0.066039
v 0.231083 0.111063 0.070951
v 0.231083 0.111063 0.070951
v 0.226170 0.127752 0.066039
v 0.226170 0.111063 0.066039
v 0.231083 0.127752 0.070951
v 0.231083 0.127752 0.070951
v 0.231083 0.111063 0.070951
v 0.226170 0.127752 0.066039
v 0.226170 0.111063 0.066039
v 0.231083 0.127752 0.070951
v 0.326003 0.127752 -0.023969
v 0.226170 0.127752 0.066039
v 0.231083 0.127752 0.070951
v 0.321091 0.127752 -0.028882
v 0.321091 0.127752 -0.028882
v 0.326003 0.127752 -0.023969
v 0.226170 0.127752 0.066039
v 0.231083 0.127752 0.070951
v 0.231083 0.111063 0.070951
v 0.326003 0.127752 -0.023969
v 0.231083 0.127752 0.070951
v 0.326003 0.111063 -0.023969
v 0.326003 0.111063 -0.023969
v 0.231083 0.111063 0.070951
v 0.326003 0.127752 -0.023969
v 0.231083 0.127752 0.070951
vt 0.394440 0.108803
vt 0.000000 0.000000
vt 0.394440 0.000000
vt 0.000000 0.108803
vt 0.000000 0.108803
vt 0.394440 0.108803
vt 0.000000 0.000000
vt 0.394440 0.000000
vt 0.016529 0.000000
vt 0.000000 0.108803
vt 0.000000 0.000000
vt 0.016529 0.108803
vt 0.016529 0.108803
vt 0.016529 0.000000
vt 0.000000 0.108803
vt 0.000000 0.000000
vt 0.394440 0.000000
vt 0.000000 0.025197
vt 0.000000 0.000000
vt 0.394440 0.025197
vt 0.394440 0.025197
vt 0.394440 0.000000
vt 0.000000 0.025197
vt 0.000000 0.000000
vt -0.016529 0.108803
vt 0.000000 0.000000
vt 0.000000 0.108803
vt -0.016529 0.000000
vt -0.016529 0.000000
vt -0.016529 0.108803
vt 0.000000 0.000000
vt 0.000000 0.108803
vt -0.394440 0.025197
vt 0.000000 0.000000
vt 0.000000 0.025197
vt -0.394440 0.000000
vt -0.394440 0.000000
vt -0.394440 0.025197
vt 0.000000 0.000000
vt 0.000000 0.025197
vt 0.000000 0.108803
vt -0.394440 0.000000
vt 0.000000 0.000000
vt -0.394440 0.108803
vt -0.394440 0.108803
vt 0.000000 0.108803
vt -0.394440 0.000000
vt 0.000000 0.000000
vn -0.7071 0.0000 -0.7071
vn 0.7071 0.0000 0.7071
vn 0.7071 0.0000 -0.7071
vn -0.7071 0.0000 0.7071
vn 0.0000 -1.0000 -0.0000
vn 0.0000 1.0000 0.0000
usemtl (null)
s off
f 113/97/13 114/98/13 115/99/13
f 114/98/13 113/97/13 116/100/13
f 117/101/14 118/102/14 119/103/14
f 120/104/14 119/103/14 118/102/14
f 125/105/15 126/106/15 127/107/15
f 126/106/15 125/105/15 128/108/15
f 129/109/16 130/110/16 131/111/16
f 132/112/16 131/111/16 130/110/16
f 135/113/17 136/114/17 137/115/17
f 136/114/17 135/113/17 138/116/17
f 139/117/18 140/118/18 141/119/18
f 142/120/18 141/119/18 140/118/18
f 144/121/16 145/122/16 146/123/16
f 145/122/16 144/121/16 147/124/16
f 148/125/15 149/126/15 150/127/15
f 151/128/15 150/127/15 149/126/15
f 153/129/18 154/130/18 155/131/18
f 154/130/18 153/129/18 156/132/18
f 157/133/17 158/134/17 159/135/17
f 160/136/17 159/135/17 158/134/17
f 161/137/14 162/138/14 163/139/14
f 162/138/14 161/137/14 164/140/14
f 165/141/13 166/142/13 167/143/13
f 168/144/13 167/143/13 166/142/13
l 121 122
l 123 121
l 124 123
l 122 124
l 122 133
l 134 133
l 121 134
l 143 134
l 123 143
l 152 143
l 124 152
l 133 152
o group_14.001_ID167
v 0.235457 0.214359 0.285416
v 0.243593 0.206454 0.277280
v 0.243593 0.214359 0.277280
v 0.235457 0.206454 0.285416
v 0.235457 0.206454 0.285416
v 0.235457 0.214359 0.285416
v 0.243593 0.206454 0.277280
v 0.243593 0.214359 0.277280
v 0.243593 0.214359 0.277280
v 0.235457 0.214359 0.285416
v 0.235457 0.206454 0.285416
v 0.243593 0.206454 0.277280
v 0.235457 0.214359 0.285416
v 0.141543 0.214359 0.175230
v 0.133407 0.214359 0.183366
v 0.243593 0.214359 0.277280
v 0.243593 0.214359 0.277280
v 0.235457 0.214359 0.285416
v 0.141543 0.214359 0.175230
v 0.133407 0.214359 0.183366
v 0.141543 0.214359 0.175230
v 0.133407 0.214359 0.183366
v 0.133407 0.206454 0.183366
v 0.235457 0.214359 0.285416
v 0.133407 0.214359 0.183366
v 0.235457 0.206454 0.285416
v 0.235457 0.206454 0.285416
v 0.133407 0.206454 0.183366
v 0.235457 0.214359 0.285416
v 0.133407 0.214359 0.183366
v 0.133407 0.206454 0.183366
v 0.243593 0.206454 0.277280
v 0.133407 0.206454 0.183366
v 0.141543 0.206454 0.175230
v 0.235457 0.206454 0.285416
v 0.235457 0.206454 0.285416
v 0.243593 0.206454 0.277280
v 0.133407 0.206454 0.183366
v 0.141543 0.206454 0.175230
v 0.141543 0.206454 0.175230
v 0.243593 0.206454 0.277280
v 0.141543 0.214359 0.175230
v 0.243593 0.214359 0.277280
v 0.141543 0.206454 0.175230
v 0.141543 0.206454 0.175230
v 0.243593 0.206454 0.277280
v 0.141543 0.214359 0.175230
v 0.243593 0.214359 0.277280
v 0.133407 0.206454 0.183366
v 0.141543 0.214359 0.175230
v 0.141543 0.206454 0.175230
v 0.133407 0.214359 0.183366
v 0.133407 0.214359 0.183366
v 0.133407 0.206454 0.183366
v 0.141543 0.214359 0.175230
v 0.141543 0.206454 0.175230
vt 0.033809 0.000000
vt 0.000000 0.051538
vt 0.000000 0.000000
vt 0.033809 0.051538
vt 0.033809 0.051538
vt 0.033809 0.000000
vt 0.000000 0.051538
vt 0.000000 0.000000
vt -0.343351 0.051538
vt 0.000000 0.000000
vt 0.000000 0.051538
vt -0.343351 0.000000
vt -0.343351 0.000000
vt -0.343351 0.051538
vt 0.000000 0.000000
vt 0.000000 0.051538
vt 0.000000 0.051538
vt -0.343351 0.000000
vt 0.000000 0.000000
vt -0.343351 0.051538
vt -0.343351 0.051538
vt 0.000000 0.051538
vt -0.343351 0.000000
vt 0.000000 0.000000
vt 0.343351 0.000000
vt 0.000000 0.051538
vt 0.000000 0.000000
vt 0.343351 0.051538
vt 0.343351 0.051538
vt 0.343351 0.000000
vt 0.000000 0.051538
vt 0.000000 0.000000
vt 0.343351 0.051538
vt 0.000000 0.000000
vt 0.343351 0.000000
vt 0.000000 0.051538
vt 0.000000 0.051538
vt 0.343351 0.051538
vt 0.000000 0.000000
vt 0.343351 0.000000
vt -0.033809 0.051538
vt 0.000000 0.000000
vt 0.000000 0.051538
vt -0.033809 0.000000
vt -0.033809 0.000000
vt -0.033809 0.051538
vt 0.000000 0.000000
vt 0.000000 0.051538
vn 0.7071 0.0000 0.7071
vn -0.7071 0.0000 -0.7071
vn 0.0000 1.0000 0.0000
vn -0.0000 -1.0000 0.0000
vn -0.7071 0.0000 0.7071
vn 0.7071 0.0000 -0.7071
usemtl (null)
s off
f 169/145/19 170/146/19 171/147/19
f 170/146/19 169/145/19 172/148/19
f 173/149/20 174/150/20 175/151/20
f 176/152/20 175/151/20 174/150/20
f 181/153/21 182/154/21 183/155/21
f 182/154/21 181/153/21 184/156/21
f 185/157/22 186/158/22 187/159/22
f 188/160/22 187/159/22 186/158/22
f 191/161/23 192/162/23 193/163/23
f 192/162/23 191/161/23 194/164/23
f 195/165/24 196/166/24 197/167/24
f 198/168/24 197/167/24 196/166/24
f 200/169/22 201/170/22 202/171/22
f 201/170/22 200/169/22 203/172/22
f 204/173/21 205/174/21 206/175/21
f 207/176/21 206/175/21 205/174/21
f 209/177/24 210/178/24 211/179/24
f 210/178/24 209/177/24 212/180/24
f 213/181/23 214/182/23 215/183/23
f 216/184/23 215/183/23 214/182/23
f 217/185/20 218/186/20 219/187/20
f 218/186/20 217/185/20 220/188/20
f 221/189/19 222/190/19 223/191/19
f 224/192/19 223/191/19 222/190/19
l 177 178
l 178 179
l 180 179
l 177 180
l 189 177
l 190 189
l 178 190
l 190 199
l 179 199
l 199 208
l 208 180
l 189 208
