# Blender v2.91.2 OBJ File: 'fullblend.blend'
# www.blender.org
mtllib t4.mtl
o group_3.001_ID46
v 0.329334 0.100171 -0.047397
v 0.246356 0.100171 0.303546
v 0.112373 0.100171 0.169564
v 0.463316 0.100171 0.086586
v 0.463316 0.100171 0.086586
v 0.329334 0.100171 -0.047397
v 0.246356 0.100171 0.303546
v 0.112373 0.100171 0.169564
v 0.246356 0.100171 0.303546
v 0.112373 0.100171 0.169564
v 0.329334 0.100171 -0.047397
v 0.463316 0.100171 0.086586
v 0.246356 0.100171 0.303546
v 0.112373 0.105441 0.169564
v 0.112373 0.100171 0.169564
v 0.246356 0.105441 0.303546
v 0.246356 0.105441 0.303546
v 0.246356 0.100171 0.303546
v 0.112373 0.105441 0.169564
v 0.112373 0.100171 0.169564
v 0.246356 0.105441 0.303546
v 0.112373 0.105441 0.169564
v 0.329334 0.100171 -0.047397
v 0.112373 0.105441 0.169564
v 0.329334 0.105441 -0.047397
v 0.112373 0.100171 0.169564
v 0.112373 0.100171 0.169564
v 0.329334 0.100171 -0.047397
v 0.112373 0.105441 0.169564
v 0.329334 0.105441 -0.047397
v 0.329334 0.105441 -0.047397
v 0.463316 0.105441 0.086586
v 0.329334 0.100171 -0.047397
v 0.329334 0.105441 -0.047397
v 0.463316 0.100171 0.086586
v 0.463316 0.100171 0.086586
v 0.463316 0.105441 0.086586
v 0.329334 0.100171 -0.047397
v 0.329334 0.105441 -0.047397
v 0.463316 0.105441 0.086586
v 0.246356 0.100171 0.303546
v 0.463316 0.105441 0.086586
v 0.246356 0.105441 0.303546
v 0.463316 0.100171 0.086586
v 0.463316 0.100171 0.086586
v 0.246356 0.100171 0.303546
v 0.463316 0.105441 0.086586
v 0.246356 0.105441 0.303546
v 0.463316 0.105441 0.086586
v 0.112373 0.105441 0.169564
v 0.246356 0.105441 0.303546
v 0.329334 0.105441 -0.047397
v 0.329334 0.105441 -0.047397
v 0.463316 0.105441 0.086586
v 0.112373 0.105441 0.169564
v 0.246356 0.105441 0.303546
vt 0.901578 0.137436
vt 0.000000 0.824614
vt 0.000000 0.137436
vt 0.901578 0.824614
vt 0.901578 0.824614
vt 0.901578 0.137436
vt 0.000000 0.824614
vt 0.000000 0.137436
vt -0.540947 0.034359
vt -0.090158 0.000000
vt -0.090158 0.034359
vt -0.540947 0.000000
vt -0.540947 0.000000
vt -0.540947 0.034359
vt -0.090158 0.000000
vt -0.090158 0.034359
vt 0.901578 0.034359
vt 0.000000 0.000000
vt 0.901578 0.000000
vt 0.000000 0.034359
vt 0.000000 0.034359
vt 0.901578 0.034359
vt 0.000000 0.000000
vt 0.901578 0.000000
vt 0.540947 0.000000
vt 0.090158 0.034359
vt 0.090158 0.000000
vt 0.540947 0.034359
vt 0.540947 0.034359
vt 0.540947 0.000000
vt 0.090158 0.034359
vt 0.090158 0.000000
vt 0.000000 0.034359
vt -0.901578 0.000000
vt 0.000000 0.000000
vt -0.901578 0.034359
vt -0.901578 0.034359
vt 0.000000 0.034359
vt -0.901578 0.000000
vt 0.000000 0.000000
vt -0.901578 0.824614
vt 0.000000 0.137436
vt 0.000000 0.824614
vt -0.901578 0.137436
vt -0.901578 0.137436
vt -0.901578 0.824614
vt 0.000000 0.137436
vt 0.000000 0.824614
vn -0.0000 -1.0000 -0.0000
vn 0.0000 1.0000 0.0000
vn -0.7071 0.0000 0.7071
vn 0.7071 0.0000 -0.7071
vn -0.7071 0.0000 -0.7071
vn 0.7071 0.0000 0.7071
usemtl (null)
s off
f 1/1/1 2/2/1 3/3/1
f 2/2/1 1/1/1 4/4/1
f 5/5/2 6/6/2 7/7/2
f 8/8/2 7/7/2 6/6/2
f 13/9/3 14/10/3 15/11/3
f 14/10/3 13/9/3 16/12/3
f 17/13/4 18/14/4 19/15/4
f 20/16/4 19/15/4 18/14/4
f 23/17/5 24/18/5 25/19/5
f 24/18/5 23/17/5 26/20/5
f 27/21/6 28/22/6 29/23/6
f 30/24/6 29/23/6 28/22/6
f 32/25/4 33/26/4 34/27/4
f 33/26/4 32/25/4 35/28/4
f 36/29/3 37/30/3 38/31/3
f 39/32/3 38/31/3 37/30/3
f 41/33/6 42/34/6 43/35/6
f 42/34/6 41/33/6 44/36/6
f 45/37/5 46/38/5 47/39/5
f 48/40/5 47/39/5 46/38/5
f 49/41/2 50/42/2 51/43/2
f 50/42/2 49/41/2 52/44/2
f 53/45/1 54/46/1 55/47/1
f 56/48/1 55/47/1 54/46/1
l 9 10
l 10 11
l 11 12
l 12 9
l 21 22
l 22 10
l 21 9
l 22 31
l 31 11
l 31 40
l 40 12
l 40 21
