# Blender v2.91.2 OBJ File: 'fullblend2.blend'
# www.blender.org
mtllib book1a.mtl
o instance_3.003_ID172
v 0.228531 0.071265 0.149081
v 0.161266 0.071148 0.204750
v 0.228531 0.071265 0.204750
v 0.161266 0.071148 0.149081
v 0.161266 0.071148 0.149081
v 0.228531 0.071265 0.149081
v 0.161266 0.071148 0.204750
v 0.228531 0.071265 0.204750
v 0.228531 0.071265 0.204750
v 0.228531 0.071265 0.149081
v 0.161266 0.071148 0.149081
v 0.161266 0.071148 0.204750
v 0.161266 0.071148 0.204750
v 0.228541 0.065736 0.204750
v 0.228531 0.071265 0.204750
v 0.161275 0.065618 0.204750
v 0.161275 0.065618 0.204750
v 0.161266 0.071148 0.204750
v 0.228541 0.065736 0.204750
v 0.228531 0.071265 0.204750
v 0.228541 0.065736 0.204750
v 0.161275 0.065618 0.204750
v 0.161275 0.065618 0.149081
v 0.228541 0.065736 0.204750
v 0.161275 0.065618 0.204750
v 0.228541 0.065736 0.149081
v 0.228541 0.065736 0.149081
v 0.161275 0.065618 0.149081
v 0.228541 0.065736 0.204750
v 0.161275 0.065618 0.204750
v 0.228541 0.065736 0.149081
v 0.161275 0.065618 0.149081
vt 0.000000 0.000000
vt 0.000000 0.000000
vt 0.000000 0.000000
vt 0.000000 0.000000
vt 0.000000 0.000000
vt 0.000000 0.000000
vt 0.000000 0.000000
vt 0.000000 0.000000
vt 0.000000 0.000000
vt 0.000000 0.000000
vt 0.000000 0.000000
vt 0.000000 0.000000
vt 2.038979 0.000551
vt 1.028979 0.972977
vt 1.028979 0.000551
vt 2.038979 0.972977
vt 1.338951 -0.124214
vt 0.118557 -0.044276
vt 0.118557 -0.124214
vt 1.338951 -0.044276
vt -1.049890 0.991815
vt -0.039890 0.019390
vt -0.039890 0.991815
vt -1.049890 0.019390
vn 0.0017 -1.0000 0.0000
vn 0.0000 0.0000 -1.0000
vn -0.0017 1.0000 0.0000
vn 0.0000 0.0000 1.0000
usemtl (null)
s off
f 5/1/1 6/2/1 7/3/1
f 8/4/1 7/3/1 6/2/1
f 17/5/2 18/6/2 19/7/2
f 20/8/2 19/7/2 18/6/2
f 27/9/3 28/10/3 29/11/3
f 30/12/3 29/11/3 28/10/3
f 1/13/3 2/14/3 3/15/3
f 2/14/3 1/13/3 4/16/3
f 13/17/4 14/18/4 15/19/4
f 14/18/4 13/17/4 16/20/4
f 23/21/1 24/22/1 25/23/1
f 24/22/1 23/21/1 26/24/1
l 9 10
l 10 11
l 12 11
l 9 12
l 21 9
l 22 12
l 21 22
l 31 21
l 32 22
l 31 32
