# Blender v2.91.2 OBJ File: 'fullblend2.blend'
# www.blender.org
mtllib book4a.mtl
o instance_1.002_ID64.001
v 0.240000 0.100000 0.129514
v 0.144938 0.099834 0.210000
v 0.240000 0.100000 0.210000
v 0.144938 0.099834 0.129514
v 0.144938 0.099834 0.129514
v 0.240000 0.100000 0.129514
v 0.144938 0.099834 0.210000
v 0.240000 0.100000 0.210000
v 0.240000 0.100000 0.210000
v 0.240000 0.100000 0.129514
v 0.144938 0.099834 0.129514
v 0.144938 0.099834 0.210000
v 0.144938 0.099834 0.210000
v 0.240015 0.091439 0.210000
v 0.240000 0.100000 0.210000
v 0.144953 0.091273 0.210000
v 0.144953 0.091273 0.210000
v 0.144938 0.099834 0.210000
v 0.240015 0.091439 0.210000
v 0.240000 0.100000 0.210000
v 0.144953 0.091273 0.210000
v 0.240015 0.091439 0.210000
v 0.144953 0.091273 0.129514
v 0.240015 0.091439 0.210000
v 0.144953 0.091273 0.210000
v 0.240015 0.091439 0.129514
v 0.240015 0.091439 0.129514
v 0.144953 0.091273 0.129514
v 0.240015 0.091439 0.210000
v 0.144953 0.091273 0.210000
v 0.240015 0.091439 0.129514
v 0.144953 0.091273 0.129514
v 0.144953 0.091273 0.129514
v 0.240014 0.092266 0.129514
v 0.240015 0.091439 0.129514
v 0.144951 0.092100 0.129514
v 0.144951 0.092100 0.129514
v 0.144953 0.091273 0.129514
v 0.240014 0.092266 0.129514
v 0.240015 0.091439 0.129514
v 0.240014 0.092266 0.129514
v 0.144951 0.092100 0.129514
vt 0.000000 0.000000
vt 0.000000 0.000000
vt 0.000000 0.000000
vt 0.000000 0.000000
vt 0.000000 0.000000
vt 0.000000 0.000000
vt 0.000000 0.000000
vt 0.000000 0.000000
vt 0.000000 0.000000
vt 0.000000 0.000000
vt 0.000000 0.000000
vt 0.000000 0.000000
vt 0.000000 0.000000
vt 0.000000 0.000000
vt 0.000000 0.000000
vt 0.000000 0.000000
vt 0.978914 0.013496
vt 0.546247 0.999105
vt 0.546247 0.013496
vt 0.978914 0.999105
vt 0.546247 0.999105
vt 0.477214 0.013496
vt 0.546247 0.013496
vt 0.477214 0.999105
vt 0.044547 0.999105
vt 0.477214 0.013496
vt 0.477214 0.999105
vt 0.044547 0.013496
vt 0.044547 0.999105
vt 0.037880 0.013496
vt 0.044547 0.013496
vt 0.037880 0.999105
vn 0.0017 -1.0000 0.0000
vn 0.0000 0.0000 -1.0000
vn -0.0017 1.0000 0.0000
vn 0.0000 0.0000 1.0000
usemtl (null)
s off
f 5/1/1 6/2/1 7/3/1
f 8/4/1 7/3/1 6/2/1
f 17/5/2 18/6/2 19/7/2
f 20/8/2 19/7/2 18/6/2
f 27/9/3 28/10/3 29/11/3
f 30/12/3 29/11/3 28/10/3
f 37/13/4 38/14/4 39/15/4
f 40/16/4 39/15/4 38/14/4
f 1/17/3 2/18/3 3/19/3
f 2/18/3 1/17/3 4/20/3
f 13/21/4 14/22/4 15/23/4
f 14/22/4 13/21/4 16/24/4
f 23/25/1 24/26/1 25/27/1
f 24/26/1 23/25/1 26/28/1
f 33/29/2 34/30/2 35/31/2
f 34/30/2 33/29/2 36/32/2
l 9 10
l 10 11
l 12 11
l 9 12
l 21 12
l 22 21
l 22 9
l 31 22
l 32 21
l 31 32
l 31 41
l 32 42
l 41 42
