# Blender v2.91.2 OBJ File: 'fullblend2.blend'
# www.blender.org
mtllib book3b.mtl
o instance_0.002_ID19
v 0.149454 0.079688 0.206572
v 0.150480 0.090503 0.206572
v 0.150499 0.079690 0.206572
v 0.149435 0.090501 0.206572
v 0.149435 0.090501 0.206572
v 0.149454 0.079688 0.206572
v 0.150480 0.090503 0.206572
v 0.150499 0.079690 0.206572
v 0.150480 0.090503 0.206572
v 0.149435 0.090501 0.206572
v 0.150499 0.079690 0.206572
v 0.149454 0.079688 0.206572
v 0.149435 0.090501 0.136421
v 0.150480 0.090503 0.206572
v 0.149435 0.090501 0.206572
v 0.150480 0.090503 0.137238
v 0.237248 0.090654 0.137238
v 0.237248 0.090654 0.136421
v 0.237248 0.090654 0.136421
v 0.149435 0.090501 0.136421
v 0.237248 0.090654 0.137238
v 0.150480 0.090503 0.137238
v 0.150480 0.090503 0.206572
v 0.149435 0.090501 0.206572
v 0.149435 0.090501 0.136421
v 0.237248 0.090654 0.136421
v 0.237248 0.090654 0.137238
v 0.150480 0.090503 0.137238
v 0.150499 0.079690 0.137238
v 0.149454 0.079688 0.206572
v 0.150499 0.079690 0.206572
v 0.149454 0.079688 0.136421
v 0.237266 0.079842 0.137238
v 0.237266 0.079842 0.136421
v 0.237266 0.079842 0.136421
v 0.237266 0.079842 0.137238
v 0.149454 0.079688 0.136421
v 0.150499 0.079690 0.137238
v 0.149454 0.079688 0.206572
v 0.150499 0.079690 0.206572
v 0.149454 0.079688 0.136421
v 0.150499 0.079690 0.137238
v 0.237266 0.079842 0.137238
v 0.237266 0.079842 0.136421
v 0.149455 0.078861 0.207813
v 0.149454 0.079688 0.206572
v 0.149455 0.078861 0.136421
v 0.149434 0.091281 0.207813
v 0.149435 0.090501 0.206572
v 0.149435 0.090501 0.136421
v 0.149434 0.091281 0.136421
v 0.149454 0.079688 0.136421
v 0.149454 0.079688 0.206572
v 0.149455 0.078861 0.136421
v 0.149454 0.079688 0.136421
v 0.149434 0.091281 0.136421
v 0.149434 0.091281 0.207813
v 0.149435 0.090501 0.136421
v 0.149435 0.090501 0.206572
v 0.149455 0.078861 0.207813
v 0.149434 0.091281 0.207813
v 0.149434 0.091281 0.136421
v 0.149455 0.078861 0.136421
v 0.149455 0.078861 0.207813
v 0.237248 0.090654 0.136421
v 0.149434 0.091281 0.136421
v 0.237246 0.091434 0.136421
v 0.149435 0.090501 0.136421
v 0.149435 0.090501 0.136421
v 0.237248 0.090654 0.136421
v 0.149434 0.091281 0.136421
v 0.237246 0.091434 0.136421
v 0.237246 0.091434 0.136421
v 0.237246 0.091434 0.136421
v 0.237248 0.090654 0.137238
v 0.237248 0.090654 0.136421
v 0.237248 0.090654 0.206572
v 0.237266 0.079842 0.136421
v 0.237268 0.079015 0.207813
v 0.237268 0.079015 0.136421
v 0.237266 0.079842 0.206572
v 0.237246 0.091434 0.207813
v 0.237266 0.079842 0.137238
v 0.237246 0.091434 0.136421
v 0.237248 0.090654 0.206572
v 0.237246 0.091434 0.207813
v 0.237266 0.079842 0.206572
v 0.237266 0.079842 0.137238
v 0.237266 0.079842 0.136421
v 0.237268 0.079015 0.207813
v 0.237268 0.079015 0.136421
v 0.237248 0.090654 0.137238
v 0.237248 0.090654 0.136421
v 0.237246 0.091434 0.207813
v 0.237268 0.079015 0.207813
v 0.237268 0.079015 0.136421
v 0.237266 0.079842 0.206572
v 0.237248 0.090654 0.206572
v 0.149455 0.078861 0.136421
v 0.237266 0.079842 0.136421
v 0.237268 0.079015 0.136421
v 0.149454 0.079688 0.136421
v 0.149454 0.079688 0.136421
v 0.149455 0.078861 0.136421
v 0.237266 0.079842 0.136421
v 0.237268 0.079015 0.136421
vn 0.0000 0.0000 1.0000
vn -0.0017 1.0000 0.0000
vn 0.0017 -1.0000 0.0000
vn 1.0000 0.0017 0.0000
vn 1.0000 0.0018 0.0000
vn -1.0000 -0.0018 0.0000
vn -1.0000 -0.0017 -0.0000
vn 0.0000 0.0000 -1.0000
vn 0.0000 1.0000 0.0000
usemtl (null)
s off
f 5//1 6//1 7//1
f 8//1 7//1 6//1
f 19//2 20//2 21//2
f 21//2 20//2 22//2
f 22//2 20//2 23//2
f 24//2 23//2 20//2
f 35//3 36//3 37//3
f 36//3 38//3 37//3
f 37//3 38//3 39//3
f 40//3 39//3 38//3
f 53//4 54//4 55//4
f 56//5 57//5 58//5
f 58//4 57//4 59//4
f 59//4 57//4 53//4
f 57//4 60//4 53//4
f 54//4 53//4 60//4
f 69//1 70//1 71//1
f 72//1 71//1 70//1
f 84//6 85//6 86//6
f 85//7 87//7 86//7
f 88//1 89//1 87//1
f 86//7 87//7 90//7
f 87//7 89//7 90//7
f 91//6 90//6 89//6
f 85//7 84//7 92//7
f 93//6 92//6 84//6
f 103//1 104//1 105//1
f 106//1 105//1 104//1
f 1//8 2//8 3//8
f 2//8 1//8 4//8
f 13//3 14//3 15//3
f 14//3 13//3 16//3
f 16//3 13//3 17//3
f 17//3 13//3 18//3
f 29//2 30//2 31//2
f 30//2 29//2 32//2
f 32//2 29//2 33//2
f 32//2 33//2 34//2
f 45//7 46//7 47//7
f 46//7 45//7 48//7
f 46//7 48//7 49//7
f 49//7 48//7 50//7
f 50//6 48//6 51//6
f 52//7 47//7 46//7
f 65//8 66//8 67//8
f 66//8 65//8 68//8
f 74//5 75//5 76//5
f 75//4 74//4 77//4
f 78//5 79//5 80//5
f 79//4 78//4 81//4
f 79//4 81//4 82//4
f 81//9 78//9 83//9
f 82//4 81//4 77//4
f 82//5 77//5 74//5
f 99//8 100//8 101//8
f 100//8 99//8 102//8
l 9 10
l 11 9
l 11 12
l 12 10
l 25 10
l 26 25
l 26 27
l 27 28
l 28 9
l 41 12
l 42 11
l 43 42
l 44 43
l 44 41
l 61 62
l 25 62
l 63 41
l 63 64
l 64 61
l 26 73
l 73 62
l 94 73
l 95 94
l 96 95
l 96 44
l 43 97
l 97 98
l 27 98
l 96 63
