# Blender v2.91.2 OBJ File: 'fullblend2.blend'
# www.blender.org
mtllib book3a.mtl
o instance_0.003_ID29
v 0.149455 0.078861 0.136421
v 0.237268 0.079015 0.207813
v 0.149455 0.078861 0.207813
v 0.237268 0.079015 0.136421
v 0.237268 0.079015 0.136421
v 0.149455 0.078861 0.136421
v 0.237268 0.079015 0.207813
v 0.149455 0.078861 0.207813
v 0.237268 0.079015 0.136421
v 0.237268 0.079015 0.207813
v 0.149455 0.078861 0.207813
v 0.149455 0.078861 0.136421
v 0.149434 0.091281 0.207813
v 0.237268 0.079015 0.207813
v 0.237246 0.091434 0.207813
v 0.149455 0.078861 0.207813
v 0.149455 0.078861 0.207813
v 0.149434 0.091281 0.207813
v 0.237268 0.079015 0.207813
v 0.237246 0.091434 0.207813
v 0.237246 0.091434 0.207813
v 0.149434 0.091281 0.207813
v 0.237246 0.091434 0.136421
v 0.149434 0.091281 0.207813
v 0.237246 0.091434 0.207813
v 0.149434 0.091281 0.136421
v 0.149434 0.091281 0.136421
v 0.237246 0.091434 0.136421
v 0.149434 0.091281 0.207813
v 0.237246 0.091434 0.207813
v 0.237246 0.091434 0.136421
v 0.149434 0.091281 0.136421
vt 0.000000 0.000000
vt 0.000000 0.000000
vt 0.000000 0.000000
vt 0.000000 0.000000
vt 0.000000 0.000000
vt 0.000000 0.000000
vt 0.000000 0.000000
vt 0.000000 0.000000
vt 0.000000 0.000000
vt 0.000000 0.000000
vt 0.000000 0.000000
vt 0.000000 0.000000
vt -0.986754 0.999194
vt -0.555003 0.017211
vt -0.555003 0.999194
vt -0.986754 0.017211
vt -0.442341 0.999194
vt -0.555003 0.017211
vt -0.442341 0.017211
vt -0.555003 0.999194
vt -0.000590 0.017211
vt -0.432341 0.999194
vt -0.432341 0.017211
vt -0.000590 0.999194
vn -0.0017 1.0000 0.0000
vn 0.0000 0.0000 -1.0000
vn 0.0017 -1.0000 0.0000
vn 0.0000 0.0000 1.0000
usemtl (null)
s off
f 5/1/1 6/2/1 7/3/1
f 8/4/1 7/3/1 6/2/1
f 17/5/2 18/6/2 19/7/2
f 20/8/2 19/7/2 18/6/2
f 27/9/3 28/10/3 29/11/3
f 30/12/3 29/11/3 28/10/3
f 1/13/3 2/14/3 3/15/3
f 2/14/3 1/13/3 4/16/3
f 13/17/4 14/18/4 15/19/4
f 14/18/4 13/17/4 16/20/4
f 23/21/1 24/22/1 25/23/1
f 24/22/1 23/21/1 26/24/1
l 9 10
l 10 11
l 12 11
l 9 12
l 21 22
l 11 22
l 10 21
l 21 31
l 31 32
l 22 32
