# Blender v2.91.2 OBJ File: 'fullblend2.blend'
# www.blender.org
mtllib bathwallparts.mtl
o Cube.008
v 0.001144 -0.310300 0.704581
v 0.021472 -0.310300 0.684254
v 0.021472 0.224700 0.684254
v 0.001144 0.224700 0.704581
v -0.151035 -0.310300 0.511746
v -0.151035 0.224700 0.511746
v -0.171363 -0.310300 0.532074
v -0.171363 0.224700 0.532074
vt 0.375000 0.000000
vt 0.375000 0.250000
vt 0.625000 0.250000
vt 0.625000 0.000000
vt 0.375000 0.500000
vt 0.625000 0.500000
vt 0.375000 0.750000
vt 0.625000 0.750000
vt 0.375000 1.000000
vt 0.625000 1.000000
vt 0.125000 0.500000
vt 0.125000 0.750000
vt 0.875000 0.750000
vt 0.875000 0.500000
vn 0.7071 -0.0000 0.7071
vn 0.7071 0.0000 -0.7071
vn -0.7071 0.0000 -0.7071
vn -0.7071 -0.0000 0.7071
vn -0.0000 -1.0000 -0.0000
vn -0.0000 1.0000 0.0000
usemtl None.001
s 1
f 1/1/1 2/2/1 3/3/1 4/4/1
f 2/2/2 5/5/2 6/6/2 3/3/2
f 5/5/3 7/7/3 8/8/3 6/6/3
f 7/7/4 1/9/4 4/10/4 8/8/4
f 2/11/5 1/12/5 7/7/5 5/5/5
f 6/6/6 8/8/6 4/13/6 3/14/6
o Cube.006_Cube.009
v -0.356429 -0.310300 0.347009
v -0.336101 -0.310300 0.326681
v -0.336101 0.224700 0.326681
v -0.356429 0.224700 0.347009
v -0.593461 -0.310300 0.069321
v -0.593461 0.224700 0.069321
v -0.613789 -0.310300 0.089649
v -0.613789 0.224700 0.089649
vt 0.375000 0.000000
vt 0.375000 0.250000
vt 0.625000 0.250000
vt 0.625000 0.000000
vt 0.375000 0.500000
vt 0.625000 0.500000
vt 0.375000 0.750000
vt 0.625000 0.750000
vt 0.375000 1.000000
vt 0.625000 1.000000
vt 0.125000 0.500000
vt 0.125000 0.750000
vt 0.875000 0.750000
vt 0.875000 0.500000
vn 0.7071 -0.0000 0.7071
vn 0.7071 0.0000 -0.7071
vn -0.7071 0.0000 -0.7071
vn -0.7071 -0.0000 0.7071
vn -0.0000 -1.0000 0.0000
vn 0.0000 1.0000 -0.0000
usemtl None.001
s 1
f 9/15/7 10/16/7 11/17/7 12/18/7
f 10/16/8 13/19/8 14/20/8 11/17/8
f 13/19/9 15/21/9 16/22/9 14/20/9
f 15/21/10 9/23/10 12/24/10 16/22/10
f 10/25/11 9/26/11 15/21/11 13/19/11
f 14/20/12 16/22/12 12/27/12 11/28/12
