# Blender v2.91.2 OBJ File: 'fullblend2.blend'
# www.blender.org
mtllib doorin1.mtl
o group_2.009_ID52.001
v -0.211480 0.165016 0.291576
v -0.315100 0.165850 0.359281
v -0.212579 -0.256060 0.295082
v -0.316198 -0.255226 0.362788
v -0.211480 0.165016 0.291576
v -0.212579 -0.256060 0.295082
v -0.210593 0.165708 0.291633
v -0.211695 -0.256756 0.295151
v -0.316198 -0.255226 0.362788
v -0.316501 -0.255912 0.363631
v -0.315399 0.166552 0.360113
v -0.315100 0.165850 0.359281
v -0.315100 0.165850 0.359281
v -0.212579 -0.256060 0.295082
v -0.316198 -0.255226 0.362788
v -0.211480 0.165016 0.291576
v -0.212579 -0.256060 0.295082
v -0.210593 0.165708 0.291633
v -0.211695 -0.256756 0.295151
v -0.211480 0.165016 0.291576
v -0.316198 -0.255226 0.362788
v -0.316501 -0.255912 0.363631
v -0.315399 0.166552 0.360113
v -0.315100 0.165850 0.359281
v -0.210593 0.165708 0.291633
v -0.211695 -0.256756 0.295151
v -0.212579 -0.256060 0.295082
v -0.211480 0.165016 0.291576
v -0.316501 -0.255912 0.363631
v -0.316198 -0.255226 0.362788
v -0.315100 0.165850 0.359281
v -0.315399 0.166552 0.360113
vn 0.5470 0.0055 0.8371
vn 0.2006 -0.3330 0.9213
vn 0.2023 0.3473 0.9157
vn 0.1973 -0.3290 0.9235
vn 0.1990 0.3433 0.9179
vn 0.7606 0.3425 0.5516
vn 0.7643 0.3379 0.5492
vn 0.7626 -0.3328 0.5546
vn 0.7585 -0.3372 0.5576
vn -0.5470 -0.0055 -0.8371
vn -0.2025 -0.3470 -0.9157
vn -0.1973 0.3290 -0.9235
vn -0.1990 -0.3433 -0.9179
vn -0.2006 0.3330 -0.9213
vn -0.7607 -0.3425 -0.5514
vn -0.7644 -0.3380 -0.5490
vn -0.7626 0.3328 -0.5547
vn -0.7588 0.3372 -0.5572
usemtl material.005
s off
f 1//1 2//1 3//1
f 4//1 3//1 2//1
s 1
f 5//2 6//3 7//4
f 8//5 7//4 6//3
f 6//3 9//6 8//5
f 10//7 8//5 9//6
f 7//4 11//8 5//2
f 12//9 5//2 11//8
f 12//9 11//8 9//6
f 10//7 9//6 11//8
usemtl door.003
s off
f 13//10 14//10 15//10
f 14//10 13//10 16//10
s 1
f 17//11 18//12 19//13
f 18//12 17//11 20//14
f 21//15 19//13 22//16
f 19//13 21//15 17//11
f 23//17 20//14 24//18
f 20//14 23//17 18//12
f 23//17 21//15 22//16
f 21//15 23//17 24//18
l 25 26
l 26 27
l 28 25
l 26 29
l 30 27
l 31 30
l 32 31
l 27 28
l 32 25
l 28 31
l 29 30
l 29 32
