# Blender v2.91.2 OBJ File: 'fullblend2.blend'
# www.blender.org
mtllib doorin.mtl
o group_2.008_ID40
v -0.309648 0.164347 0.369566
v -0.206028 0.164347 0.301857
v -0.309648 -0.261042 0.369566
v -0.206028 -0.261042 0.301857
v -0.309648 -0.261042 0.369566
v -0.206028 -0.261042 0.301857
v -0.310535 -0.261743 0.369504
v -0.205728 -0.261743 0.301019
v -0.206028 0.164347 0.301857
v -0.205728 0.165048 0.301019
v -0.310535 0.165048 0.369504
v -0.309648 0.164347 0.369566
v -0.206028 0.164347 0.301857
v -0.309648 -0.261042 0.369566
v -0.206028 -0.261042 0.301857
v -0.309648 0.164347 0.369566
v -0.206028 -0.261042 0.301857
v -0.310535 -0.261743 0.369504
v -0.205728 -0.261743 0.301019
v -0.309648 -0.261042 0.369566
v -0.205728 0.165048 0.301019
v -0.206028 0.164347 0.301857
v -0.309648 0.164347 0.369566
v -0.310535 0.165048 0.369504
v -0.309648 -0.261042 0.369566
v -0.206028 -0.261042 0.301857
v -0.206028 0.164347 0.301857
v -0.309648 0.164347 0.369566
v -0.310535 -0.261743 0.369504
v -0.205728 -0.261743 0.301019
v -0.205728 0.165048 0.301019
v -0.310535 0.165048 0.369504
vn -0.5470 0.0000 -0.8371
vn -0.2024 0.3369 -0.9195
vn -0.7605 0.3368 -0.5551
vn -0.2005 0.3351 -0.9206
vn -0.7626 0.3345 -0.5537
vn -0.7605 -0.3367 -0.5552
vn -0.7625 -0.3344 -0.5538
vn -0.2006 -0.3348 -0.9207
vn -0.2019 -0.3368 -0.9197
vn 0.5470 -0.0000 0.8371
vn 0.7606 -0.3370 0.5550
vn 0.2007 -0.3348 0.9207
vn 0.7625 -0.3343 0.5539
vn 0.2024 -0.3369 0.9195
vn 0.7625 0.3343 0.5539
vn 0.7606 0.3370 0.5550
vn 0.2019 0.3368 0.9197
vn 0.2006 0.3348 0.9207
usemtl material.005
s off
f 1//1 2//1 3//1
f 4//1 3//1 2//1
s 1
f 5//2 6//3 7//4
f 8//5 7//4 6//3
f 9//6 10//7 6//3
f 8//5 6//3 10//7
f 11//8 10//7 12//9
f 9//6 12//9 10//7
f 12//9 5//2 11//8
f 7//4 11//8 5//2
usemtl door.003
s off
f 13//10 14//10 15//10
f 14//10 13//10 16//10
s 1
f 17//11 18//12 19//13
f 18//12 17//11 20//14
f 21//15 17//11 19//13
f 17//11 21//15 22//16
f 21//15 23//17 22//16
f 23//17 21//15 24//18
f 20//14 24//18 18//12
f 24//18 20//14 23//17
l 25 26
l 26 27
l 28 25
l 29 25
l 26 30
l 31 27
l 31 32
l 27 28
l 29 30
l 32 28
l 32 29
l 30 31
o group_2.009_ID52.001
v -0.211480 0.165016 0.291576
v -0.315100 0.165850 0.359281
v -0.212579 -0.256060 0.295082
v -0.316198 -0.255226 0.362788
v -0.211480 0.165016 0.291576
v -0.212579 -0.256060 0.295082
v -0.210593 0.165708 0.291633
v -0.211695 -0.256756 0.295151
v -0.316198 -0.255226 0.362788
v -0.316501 -0.255912 0.363631
v -0.315399 0.166552 0.360113
v -0.315100 0.165850 0.359281
v -0.315100 0.165850 0.359281
v -0.212579 -0.256060 0.295082
v -0.316198 -0.255226 0.362788
v -0.211480 0.165016 0.291576
v -0.212579 -0.256060 0.295082
v -0.210593 0.165708 0.291633
v -0.211695 -0.256756 0.295151
v -0.211480 0.165016 0.291576
v -0.316198 -0.255226 0.362788
v -0.316501 -0.255912 0.363631
v -0.315399 0.166552 0.360113
v -0.315100 0.165850 0.359281
v -0.210593 0.165708 0.291633
v -0.211695 -0.256756 0.295151
v -0.212579 -0.256060 0.295082
v -0.211480 0.165016 0.291576
v -0.316501 -0.255912 0.363631
v -0.316198 -0.255226 0.362788
v -0.315100 0.165850 0.359281
v -0.315399 0.166552 0.360113
vn 0.5470 0.0055 0.8371
vn 0.2006 -0.3330 0.9213
vn 0.2023 0.3473 0.9157
vn 0.1973 -0.3290 0.9235
vn 0.1990 0.3433 0.9179
vn 0.7606 0.3425 0.5516
vn 0.7643 0.3379 0.5492
vn 0.7626 -0.3328 0.5546
vn 0.7585 -0.3372 0.5576
vn -0.5470 -0.0055 -0.8371
vn -0.2025 -0.3470 -0.9157
vn -0.1973 0.3290 -0.9235
vn -0.1990 -0.3433 -0.9179
vn -0.2006 0.3330 -0.9213
vn -0.7607 -0.3425 -0.5514
vn -0.7644 -0.3380 -0.5490
vn -0.7626 0.3328 -0.5547
vn -0.7588 0.3372 -0.5572
usemtl material.005
s off
f 33//19 34//19 35//19
f 36//19 35//19 34//19
s 1
f 37//20 38//21 39//22
f 40//23 39//22 38//21
f 38//21 41//24 40//23
f 42//25 40//23 41//24
f 39//22 43//26 37//20
f 44//27 37//20 43//26
f 44//27 43//26 41//24
f 42//25 41//24 43//26
usemtl door.003
s off
f 45//28 46//28 47//28
f 46//28 45//28 48//28
s 1
f 49//29 50//30 51//31
f 50//30 49//29 52//32
f 53//33 51//31 54//34
f 51//31 53//33 49//29
f 55//35 52//32 56//36
f 52//32 55//35 50//30
f 55//35 53//33 54//34
f 53//33 55//35 56//36
l 57 58
l 58 59
l 60 57
l 58 61
l 62 59
l 63 62
l 64 63
l 59 60
l 64 57
l 60 63
l 61 62
l 61 64
