# Blender v2.91.2 OBJ File: 'fullblend2.blend'
# www.blender.org
mtllib doorin2.mtl
o group_2.008_ID40
v -0.309648 0.164347 0.369566
v -0.206028 0.164347 0.301857
v -0.309648 -0.261042 0.369566
v -0.206028 -0.261042 0.301857
v -0.309648 -0.261042 0.369566
v -0.206028 -0.261042 0.301857
v -0.310535 -0.261743 0.369504
v -0.205728 -0.261743 0.301019
v -0.206028 0.164347 0.301857
v -0.205728 0.165048 0.301019
v -0.310535 0.165048 0.369504
v -0.309648 0.164347 0.369566
v -0.206028 0.164347 0.301857
v -0.309648 -0.261042 0.369566
v -0.206028 -0.261042 0.301857
v -0.309648 0.164347 0.369566
v -0.206028 -0.261042 0.301857
v -0.310535 -0.261743 0.369504
v -0.205728 -0.261743 0.301019
v -0.309648 -0.261042 0.369566
v -0.205728 0.165048 0.301019
v -0.206028 0.164347 0.301857
v -0.309648 0.164347 0.369566
v -0.310535 0.165048 0.369504
v -0.309648 -0.261042 0.369566
v -0.206028 -0.261042 0.301857
v -0.206028 0.164347 0.301857
v -0.309648 0.164347 0.369566
v -0.310535 -0.261743 0.369504
v -0.205728 -0.261743 0.301019
v -0.205728 0.165048 0.301019
v -0.310535 0.165048 0.369504
vn -0.5470 0.0000 -0.8371
vn -0.2024 0.3369 -0.9195
vn -0.7605 0.3368 -0.5551
vn -0.2005 0.3351 -0.9206
vn -0.7626 0.3345 -0.5537
vn -0.7605 -0.3367 -0.5552
vn -0.7625 -0.3344 -0.5538
vn -0.2006 -0.3348 -0.9207
vn -0.2019 -0.3368 -0.9197
vn 0.5470 -0.0000 0.8371
vn 0.7606 -0.3370 0.5550
vn 0.2007 -0.3348 0.9207
vn 0.7625 -0.3343 0.5539
vn 0.2024 -0.3369 0.9195
vn 0.7625 0.3343 0.5539
vn 0.7606 0.3370 0.5550
vn 0.2019 0.3368 0.9197
vn 0.2006 0.3348 0.9207
usemtl material.005
s off
f 1//1 2//1 3//1
f 4//1 3//1 2//1
s 1
f 5//2 6//3 7//4
f 8//5 7//4 6//3
f 9//6 10//7 6//3
f 8//5 6//3 10//7
f 11//8 10//7 12//9
f 9//6 12//9 10//7
f 12//9 5//2 11//8
f 7//4 11//8 5//2
usemtl door.003
s off
f 13//10 14//10 15//10
f 14//10 13//10 16//10
s 1
f 17//11 18//12 19//13
f 18//12 17//11 20//14
f 21//15 17//11 19//13
f 17//11 21//15 22//16
f 21//15 23//17 22//16
f 23//17 21//15 24//18
f 20//14 24//18 18//12
f 24//18 20//14 23//17
l 25 26
l 26 27
l 28 25
l 29 25
l 26 30
l 31 27
l 31 32
l 27 28
l 29 30
l 32 28
l 32 29
l 30 31
