# Blender v2.91.2 OBJ File: 'fullblend2.blend'
# www.blender.org
mtllib bookright.mtl
o SketchUp.004_ID59
v 0.354999 0.095077 0.053642
v 0.308478 0.095276 0.006398
v 0.355360 0.095276 0.053281
v 0.308117 0.095077 0.006759
v 0.308117 0.095077 0.006759
v 0.354999 0.095077 0.053642
v 0.308478 0.095276 0.006398
v 0.355360 0.095276 0.053281
v 0.308478 0.095276 0.006398
v 0.308117 0.095077 0.006759
v 0.355360 0.095276 0.053281
v 0.354999 0.095077 0.053642
v 0.308117 0.095077 0.006759
v 0.306117 0.095089 0.008759
v 0.308478 0.095276 0.006398
v 0.311493 0.098495 0.003383
v 0.275212 0.097960 0.039664
v 0.311718 0.098921 0.003158
v 0.311253 0.098084 0.003623
v 0.310997 0.097691 0.003879
v 0.274664 0.097641 0.040212
v 0.310726 0.097316 0.004150
v 0.274100 0.097377 0.040776
v 0.273522 0.097171 0.041354
v 0.310441 0.096960 0.004435
v 0.272935 0.097022 0.041941
v 0.273536 0.096184 0.041340
v 0.310142 0.096624 0.004734
v 0.309831 0.096309 0.005045
v 0.309508 0.096016 0.005368
v 0.274194 0.095423 0.040682
v 0.309174 0.095746 0.005702
v 0.308831 0.095499 0.006045
v 0.274901 0.094747 0.039975
v 0.304118 0.095077 0.010758
v 0.302118 0.095043 0.012758
v 0.300119 0.094985 0.014757
v 0.298120 0.094905 0.016756
v 0.296122 0.094801 0.018754
v 0.294125 0.094675 0.020751
v 0.275652 0.094162 0.039224
v 0.292128 0.094407 0.022748
v 0.285809 0.093392 0.029067
v 0.276441 0.093672 0.038435
v 0.277260 0.093281 0.037616
v 0.283815 0.093196 0.031061
v 0.278103 0.092994 0.036773
v 0.281822 0.092978 0.033054
v 0.278963 0.092812 0.035913
v 0.279831 0.092737 0.035045
v 0.279831 0.092737 0.035045
v 0.281822 0.092978 0.033054
v 0.278963 0.092812 0.035913
v 0.278103 0.092994 0.036773
v 0.283815 0.093196 0.031061
v 0.277260 0.093281 0.037616
v 0.285809 0.093392 0.029067
v 0.276441 0.093672 0.038435
v 0.275652 0.094162 0.039224
v 0.292128 0.094407 0.022748
v 0.294125 0.094675 0.020751
v 0.274901 0.094747 0.039975
v 0.296122 0.094801 0.018754
v 0.298120 0.094905 0.016756
v 0.300119 0.094985 0.014757
v 0.302118 0.095043 0.012758
v 0.304118 0.095077 0.010758
v 0.306117 0.095089 0.008759
v 0.308478 0.095276 0.006398
v 0.274194 0.095423 0.040682
v 0.308831 0.095499 0.006045
v 0.309174 0.095746 0.005702
v 0.309508 0.096016 0.005368
v 0.273536 0.096184 0.041340
v 0.309831 0.096309 0.005045
v 0.310142 0.096624 0.004734
v 0.310441 0.096960 0.004435
v 0.272935 0.097022 0.041941
v 0.273522 0.097171 0.041354
v 0.310726 0.097316 0.004150
v 0.274100 0.097377 0.040776
v 0.274664 0.097641 0.040212
v 0.310997 0.097691 0.003879
v 0.275212 0.097960 0.039664
v 0.311253 0.098084 0.003623
v 0.311493 0.098495 0.003383
v 0.311718 0.098921 0.003158
v 0.308117 0.095077 0.006759
v 0.274901 0.094747 0.039975
v 0.274194 0.095423 0.040682
v 0.273536 0.096184 0.041340
v 0.272935 0.097022 0.041941
v 0.273522 0.097171 0.041354
v 0.274100 0.097377 0.040776
v 0.274664 0.097641 0.040212
v 0.275212 0.097960 0.039664
v 0.311718 0.098921 0.003158
v 0.311493 0.098495 0.003383
v 0.311253 0.098084 0.003623
v 0.310997 0.097691 0.003879
v 0.310726 0.097316 0.004150
v 0.310441 0.096960 0.004435
v 0.310142 0.096624 0.004734
v 0.309831 0.096309 0.005045
v 0.309508 0.096016 0.005368
v 0.309174 0.095746 0.005702
v 0.308831 0.095499 0.006045
v 0.306117 0.095089 0.008759
v 0.304118 0.095077 0.010758
v 0.302118 0.095043 0.012758
v 0.300119 0.094985 0.014757
v 0.298120 0.094905 0.016756
v 0.296122 0.094801 0.018754
v 0.294125 0.094675 0.020751
v 0.292128 0.094407 0.022748
v 0.285809 0.093392 0.029067
v 0.283815 0.093196 0.031061
v 0.281822 0.092978 0.033054
v 0.279831 0.092737 0.035045
v 0.278963 0.092812 0.035913
v 0.278103 0.092994 0.036773
v 0.277260 0.093281 0.037616
v 0.276441 0.093672 0.038435
v 0.275652 0.094162 0.039224
v 0.308831 0.095499 0.006045
v 0.355713 0.095499 0.052928
v 0.308831 0.095499 0.006045
v 0.355713 0.095499 0.052928
v 0.355713 0.095499 0.052928
v 0.322095 0.097960 0.086546
v 0.358376 0.098495 0.050265
v 0.358600 0.098921 0.050041
v 0.358135 0.098084 0.050506
v 0.357879 0.097691 0.050762
v 0.321547 0.097641 0.087094
v 0.357608 0.097316 0.051033
v 0.320982 0.097377 0.087659
v 0.320405 0.097171 0.088236
v 0.357323 0.096960 0.051318
v 0.319817 0.097022 0.088824
v 0.320419 0.096184 0.088222
v 0.357025 0.096624 0.051616
v 0.356714 0.096309 0.051927
v 0.356391 0.096016 0.052250
v 0.321076 0.095423 0.087565
v 0.356057 0.095746 0.052584
v 0.355713 0.095499 0.052928
v 0.355360 0.095276 0.053281
v 0.321784 0.094747 0.086858
v 0.351000 0.095077 0.057641
v 0.353000 0.095089 0.055641
v 0.349001 0.095043 0.059640
v 0.347002 0.094985 0.061640
v 0.345003 0.094905 0.063638
v 0.343005 0.094801 0.065636
v 0.341007 0.094675 0.067634
v 0.322535 0.094162 0.086106
v 0.339011 0.094407 0.069630
v 0.332692 0.093392 0.075949
v 0.323323 0.093672 0.085318
v 0.324143 0.093281 0.084498
v 0.330698 0.093196 0.077944
v 0.324986 0.092994 0.083655
v 0.328705 0.092978 0.079936
v 0.325845 0.092812 0.082796
v 0.326713 0.092737 0.081928
v 0.354999 0.095077 0.053642
v 0.353000 0.095089 0.055641
v 0.355360 0.095276 0.053281
v 0.354999 0.095077 0.053642
v 0.326713 0.092737 0.081928
v 0.325845 0.092812 0.082796
v 0.328705 0.092978 0.079936
v 0.324986 0.092994 0.083655
v 0.330698 0.093196 0.077944
v 0.324143 0.093281 0.084498
v 0.332692 0.093392 0.075949
v 0.323323 0.093672 0.085318
v 0.322535 0.094162 0.086106
v 0.339011 0.094407 0.069630
v 0.341007 0.094675 0.067634
v 0.321784 0.094747 0.086858
v 0.343005 0.094801 0.065636
v 0.345003 0.094905 0.063638
v 0.347002 0.094985 0.061640
v 0.349001 0.095043 0.059640
v 0.351000 0.095077 0.057641
v 0.321076 0.095423 0.087565
v 0.355713 0.095499 0.052928
v 0.356057 0.095746 0.052584
v 0.356391 0.096016 0.052250
v 0.320419 0.096184 0.088222
v 0.356714 0.096309 0.051927
v 0.357025 0.096624 0.051616
v 0.357323 0.096960 0.051318
v 0.319817 0.097022 0.088824
v 0.320405 0.097171 0.088236
v 0.357608 0.097316 0.051033
v 0.320982 0.097377 0.087659
v 0.321547 0.097641 0.087094
v 0.357879 0.097691 0.050762
v 0.322095 0.097960 0.086546
v 0.358135 0.098084 0.050506
v 0.358376 0.098495 0.050265
v 0.358600 0.098921 0.050041
v 0.320982 0.097377 0.087659
v 0.321547 0.097641 0.087094
v 0.320405 0.097171 0.088236
v 0.319817 0.097022 0.088824
v 0.320419 0.096184 0.088222
v 0.321076 0.095423 0.087565
v 0.321784 0.094747 0.086858
v 0.322535 0.094162 0.086106
v 0.323323 0.093672 0.085318
v 0.324143 0.093281 0.084498
v 0.324986 0.092994 0.083655
v 0.325845 0.092812 0.082796
v 0.326713 0.092737 0.081928
v 0.328705 0.092978 0.079936
v 0.330698 0.093196 0.077944
v 0.332692 0.093392 0.075949
v 0.339011 0.094407 0.069630
v 0.341007 0.094675 0.067634
v 0.343005 0.094801 0.065636
v 0.345003 0.094905 0.063638
v 0.347002 0.094985 0.061640
v 0.349001 0.095043 0.059640
v 0.351000 0.095077 0.057641
v 0.353000 0.095089 0.055641
v 0.356057 0.095746 0.052584
v 0.356391 0.096016 0.052250
v 0.356714 0.096309 0.051927
v 0.357025 0.096624 0.051616
v 0.357323 0.096960 0.051318
v 0.357608 0.097316 0.051033
v 0.357879 0.097691 0.050762
v 0.358135 0.098084 0.050506
v 0.358376 0.098495 0.050265
v 0.358600 0.098921 0.050041
v 0.322095 0.097960 0.086546
v 0.311493 0.098495 0.003383
v 0.358600 0.098921 0.050041
v 0.358376 0.098495 0.050265
v 0.311718 0.098921 0.003158
v 0.311718 0.098921 0.003158
v 0.311493 0.098495 0.003383
v 0.358600 0.098921 0.050041
v 0.358376 0.098495 0.050265
v 0.311253 0.098084 0.003623
v 0.358135 0.098084 0.050506
v 0.311253 0.098084 0.003623
v 0.358135 0.098084 0.050506
v 0.310997 0.097691 0.003879
v 0.357879 0.097691 0.050762
v 0.310997 0.097691 0.003879
v 0.357879 0.097691 0.050762
v 0.357608 0.097316 0.051033
v 0.310726 0.097316 0.004150
v 0.310726 0.097316 0.004150
v 0.357608 0.097316 0.051033
v 0.357323 0.096960 0.051318
v 0.310441 0.096960 0.004435
v 0.310441 0.096960 0.004435
v 0.357323 0.096960 0.051318
v 0.357025 0.096624 0.051616
v 0.310142 0.096624 0.004734
v 0.310142 0.096624 0.004734
v 0.357025 0.096624 0.051616
v 0.356714 0.096309 0.051927
v 0.309831 0.096309 0.005045
v 0.309831 0.096309 0.005045
v 0.356714 0.096309 0.051927
v 0.356391 0.096016 0.052250
v 0.309508 0.096016 0.005368
v 0.309508 0.096016 0.005368
v 0.356391 0.096016 0.052250
v 0.356057 0.095746 0.052584
v 0.309174 0.095746 0.005702
v 0.309174 0.095746 0.005702
v 0.356057 0.095746 0.052584
vt 0.000000 0.000000
vt 0.000000 0.000000
vt 0.000000 0.000000
vt 0.000000 0.000000
vt 0.000000 0.000000
vt 0.000000 0.000000
vt 0.000000 0.000000
vt 0.000000 0.000000
vt 0.000000 0.000000
vt 0.000000 0.000000
vt 0.000000 0.000000
vt 0.000000 0.000000
vt 0.000000 0.000000
vt 0.000000 0.000000
vt 0.000000 0.000000
vt 0.000000 0.000000
vt 0.000000 0.000000
vt 0.000000 0.000000
vt 0.000000 0.000000
vt 0.000000 0.000000
vt 0.000000 0.000000
vt 0.000000 0.000000
vt 0.000000 0.000000
vt 0.000000 0.000000
vt 0.000000 0.000000
vt 0.000000 0.000000
vt 0.000000 0.000000
vt 0.000000 0.000000
vt 0.000000 0.000000
vt 0.000000 0.000000
vt 0.000000 0.000000
vt 0.000000 0.000000
vt 0.000000 0.000000
vt 0.000000 0.000000
vt 0.000000 0.000000
vt 0.000000 0.000000
vt 0.000000 0.000000
vt 0.000000 0.000000
vt 0.000000 0.000000
vt 0.000000 0.000000
vt 0.000000 0.000000
vt 0.000000 0.000000
vt 0.000000 0.000000
vt 0.000000 0.000000
vt 0.000000 0.000000
vt 0.000000 0.000000
vt 0.000000 0.000000
vt 0.000000 0.000000
vt 0.000000 0.000000
vt 0.000000 0.000000
vt 0.000000 0.000000
vt 0.000000 0.000000
vt 0.000000 0.000000
vt 0.000000 0.000000
vt 0.000000 0.000000
vt 0.000000 0.000000
vt 0.000000 0.000000
vt 0.000000 0.000000
vt 0.000000 0.000000
vt 0.000000 0.000000
vt 0.000000 0.000000
vt 0.000000 0.000000
vt 0.000000 0.000000
vt 0.000000 0.000000
vt 0.000000 0.000000
vt 0.000000 0.000000
vt 0.000000 0.000000
vt 0.000000 0.000000
vt 0.000000 0.000000
vt 0.000000 0.000000
vt 0.000000 0.000000
vt 0.000000 0.000000
vt 0.000000 0.000000
vt 0.000000 0.000000
vt 0.000000 0.000000
vt 0.000000 0.000000
vt 0.000000 0.000000
vt 0.000000 0.000000
vt 0.000000 0.000000
vt 0.000000 0.000000
vt 0.000000 0.000000
vt 0.000000 0.000000
vt 0.000000 0.000000
vt 0.000000 0.000000
vt 0.000000 0.000000
vt 0.000000 0.000000
vt 0.000000 0.000000
vt 0.000000 0.000000
vt 0.000000 0.000000
vt 0.000000 0.000000
vt 0.000000 0.000000
vt 0.000000 0.000000
vt 0.000000 0.000000
vt 0.000000 0.000000
vt 0.000000 0.000000
vt 0.000000 0.000000
vt 0.000000 0.000000
vt 0.000000 0.000000
vt 0.000000 0.000000
vt 0.000000 0.000000
vt 0.000000 0.000000
vt 0.000000 0.000000
vt -1.804462 1.312336
vt -2.715325 1.308388
vt -1.639991 1.244591
vt -0.266238 0.145589
vt -16.793430 0.328084
vt -0.164042 -0.000000
vt -0.375812 0.285709
vt -0.492473 0.419986
vt -17.043079 0.437063
vt -0.615910 0.548062
vt -17.300180 0.527072
vt -17.563290 0.597607
vt -0.745793 0.669596
vt -17.830929 0.648273
vt -17.556850 0.934570
vt -0.881776 0.784263
vt -1.023497 0.891759
vt -1.170577 0.991796
vt -17.257420 1.194232
vt -1.322625 1.084107
vt -1.479236 1.168448
vt -16.935209 1.425023
vt -3.626188 1.312302
vt -4.536984 1.324078
vt -5.447644 1.343715
vt -6.358100 1.371211
vt -7.268286 1.406564
vt -8.178132 1.449772
vt -16.592989 1.624957
vt -9.087572 1.541159
vt -11.966169 1.887823
vt -16.233709 1.792313
vt -15.860479 1.925649
vt -12.874590 1.954573
vt -15.476490 2.023818
vt -13.782399 2.029162
vt -15.085050 2.085974
vt -14.689540 2.111584
vt 16.793430 0.328084
vt 0.266238 0.145589
vt 0.164042 -0.000000
vt 0.375812 0.285709
vt 0.492473 0.419986
vt 17.043079 0.437063
vt 0.615910 0.548062
vt 17.300180 0.527072
vt 17.563290 0.597607
vt 0.745793 0.669596
vt 17.830929 0.648273
vt 17.556850 0.934570
vt 0.881776 0.784263
vt 1.023497 0.891759
vt 1.170577 0.991796
vt 17.257420 1.194232
vt 1.322625 1.084107
vt 1.479236 1.168448
vt 1.639991 1.244591
vt 16.935209 1.425023
vt 3.626188 1.312302
vt 2.715325 1.308388
vt 4.536984 1.324078
vt 5.447644 1.343715
vt 6.358100 1.371211
vt 7.268286 1.406564
vt 8.178132 1.449772
vt 16.592989 1.624957
vt 9.087572 1.541159
vt 11.966169 1.887823
vt 16.233709 1.792313
vt 15.860479 1.925649
vt 12.874590 1.954573
vt 15.476490 2.023818
vt 13.782399 2.029162
vt 15.085050 2.085974
vt 14.689540 2.111584
vt 1.804462 1.312336
vt -0.164042 2.293227
vt -22.801840 2.115350
vt -0.164042 2.115350
vt -22.801840 2.293227
vt -0.164042 2.155351
vt -22.801840 1.977474
vt -0.164042 1.977474
vt -22.801840 2.155351
vt -22.801840 0.540655
vt -0.164042 0.362778
vt -0.164042 0.540655
vt -22.801840 0.362778
vt -22.801840 0.715012
vt -0.164042 0.537135
vt -0.164042 0.715012
vt -22.801840 0.537135
vt -22.801840 0.887699
vt -0.164042 0.709823
vt -0.164042 0.887699
vt -22.801840 0.709823
vt -0.164042 1.058257
vt -22.801840 0.880380
vt -0.164042 0.880380
vt -22.801840 1.058257
vt -0.164042 1.226230
vt -22.801840 1.048354
vt -0.164042 1.048354
vt -22.801840 1.226230
vt -0.164042 1.391172
vt -22.801840 1.213295
vt -0.164042 1.213295
vt -22.801840 1.391172
vt -0.164042 1.552641
vt -22.801840 1.374764
vt -0.164042 1.374764
vt -22.801840 1.552641
vt -0.164042 1.710208
vt -22.801840 1.532331
vt -0.164042 1.532331
vt -22.801840 1.710208
vt -0.164042 1.863452
vt -22.801840 1.685575
vt -0.164042 1.685575
vt -22.801840 1.863452
vt -0.164042 2.011965
vt -22.801840 1.834088
vt -0.164042 1.834088
vt -22.801840 2.011965
vn 0.7071 0.0002 0.7071
vn 0.7071 0.0000 0.7071
vn 0.7071 0.0001 0.7071
vn 0.7071 -0.0001 0.7071
vn 0.7071 -0.0003 0.7071
vn 0.7071 0.0003 0.7071
vn 0.7071 -0.0014 0.7071
vn 0.7068 0.0038 0.7074
vn 0.7072 0.0000 0.7070
vn -0.7071 -0.0001 -0.7071
vn -0.7071 0.0000 -0.7071
vn -0.7071 -0.0002 -0.7071
vn -0.7071 0.0002 -0.7071
vn -0.7071 0.0001 -0.7071
vn -0.7071 -0.0003 -0.7071
vn -0.7071 0.0003 -0.7071
vn -0.7071 0.0014 -0.7071
vn -0.7068 -0.0038 -0.7074
vn -0.7072 0.0000 -0.7070
vn -0.2561 0.9321 0.2561
vn -0.2724 0.9228 0.2723
vn -0.2724 0.9228 0.2724
vn -0.3045 0.9025 0.3045
vn -0.5673 0.5969 0.5673
vn -0.5560 0.6177 0.5560
vn -0.5672 0.5970 0.5673
vn -0.5560 0.6178 0.5560
vn -0.5325 0.6580 0.5325
vn -0.5324 0.6580 0.5324
vn -0.5075 0.6963 0.5075
vn -0.5076 0.6962 0.5076
vn -0.4814 0.7324 0.4814
vn -0.4542 0.7664 0.4542
vn -0.4260 0.7982 0.4260
vn -0.3968 0.8277 0.3968
vn -0.3667 0.8550 0.3667
vn -0.3668 0.8549 0.3668
vn -0.3359 0.8799 0.3359
vn -0.7072 0.0002 -0.7070
vn -0.7067 -0.0050 -0.7075
vn -0.7072 0.0010 -0.7070
vn -0.7071 -0.0004 -0.7071
vn 0.7072 0.0003 0.7071
vn 0.7071 -0.0002 0.7071
vn 0.2561 -0.9321 -0.2561
vn 0.2723 -0.9228 -0.2723
vn 0.2724 -0.9228 -0.2724
vn 0.3045 -0.9025 -0.3045
vn 0.5560 -0.6177 -0.5560
vn 0.5672 -0.5970 -0.5672
vn 0.5560 -0.6178 -0.5560
vn 0.5673 -0.5969 -0.5673
vn 0.5325 -0.6580 -0.5325
vn 0.5324 -0.6580 -0.5324
vn 0.5075 -0.6963 -0.5075
vn 0.5076 -0.6962 -0.5076
vn 0.4814 -0.7324 -0.4814
vn 0.4542 -0.7664 -0.4542
vn 0.4260 -0.7982 -0.4259
vn 0.4260 -0.7982 -0.4260
vn 0.3968 -0.8277 -0.3968
vn 0.3668 -0.8549 -0.3668
vn 0.3667 -0.8549 -0.3667
vn 0.3359 -0.8799 -0.3359
usemtl material.002
s off
f 51/1/1 52/2/1 53/3/1
f 53/3/2 52/2/2 54/4/2
f 52/2/2 55/5/2 54/4/2
f 54/4/2 55/5/2 56/6/2
f 55/5/1 57/7/1 56/6/1
f 56/6/3 57/7/3 58/8/3
f 58/8/4 57/7/4 59/9/4
f 57/7/2 60/10/2 59/9/2
f 60/10/1 61/11/1 59/9/1
f 59/9/2 61/11/2 62/12/2
f 61/11/5 63/13/5 62/12/5
f 63/13/6 64/14/6 62/12/6
f 64/14/2 65/15/2 62/12/2
f 65/15/7 66/16/7 62/12/7
f 66/16/8 67/17/8 62/12/8
f 68/18/9 69/19/9 67/17/9
f 67/17/2 69/19/2 62/12/2
f 62/12/4 69/19/4 70/20/4
f 69/19/2 71/21/2 70/20/2
f 71/21/1 72/22/1 70/20/1
f 72/22/2 73/23/2 70/20/2
f 70/20/2 73/23/2 74/24/2
f 73/23/3 75/25/3 74/24/3
f 75/25/3 76/26/3 74/24/3
f 76/26/4 77/27/4 74/24/4
f 74/24/2 77/27/2 78/28/2
f 78/28/2 77/27/2 79/29/2
f 77/27/2 80/30/2 79/29/2
f 79/29/2 80/30/2 81/31/2
f 81/31/3 80/30/3 82/32/3
f 80/30/2 83/33/2 82/32/2
f 82/32/4 83/33/4 84/34/4
f 83/33/2 85/35/2 84/34/2
f 85/35/4 86/36/4 84/34/4
f 87/37/2 84/34/2 86/36/2
f 69/19/1 68/18/1 88/38/1
f 168/39/10 169/40/10 170/41/10
f 171/42/11 172/43/11 173/44/11
f 172/43/12 174/45/12 173/44/12
f 173/44/13 174/45/13 175/46/13
f 174/45/11 176/47/11 175/46/11
f 175/46/13 176/47/13 177/48/13
f 176/47/11 178/49/11 177/48/11
f 178/49/14 179/50/14 177/48/14
f 177/48/11 179/50/11 180/51/11
f 180/51/11 179/50/11 181/52/11
f 179/50/14 182/53/14 181/52/14
f 181/52/15 182/53/15 183/54/15
f 183/54/16 182/53/16 184/55/16
f 184/55/11 182/53/11 185/56/11
f 185/56/17 182/53/17 186/57/17
f 186/57/18 182/53/18 187/58/18
f 168/39/19 187/58/19 169/40/19
f 187/58/11 182/53/11 169/40/11
f 182/53/11 188/59/11 169/40/11
f 169/40/11 188/59/11 189/60/11
f 189/60/11 188/59/11 190/61/11
f 190/61/11 188/59/11 191/62/11
f 188/59/11 192/63/11 191/62/11
f 191/62/14 192/63/14 193/64/14
f 193/64/11 192/63/11 194/65/11
f 194/65/11 192/63/11 195/66/11
f 192/63/11 196/67/11 195/66/11
f 196/67/11 197/68/11 195/66/11
f 195/66/10 197/68/10 198/69/10
f 197/68/13 199/70/13 198/69/13
f 199/70/11 200/71/11 198/69/11
f 198/69/11 200/71/11 201/72/11
f 200/71/10 202/73/10 201/72/10
f 201/72/14 202/73/14 203/74/14
f 203/74/11 202/73/11 204/75/11
f 205/76/10 204/75/10 202/73/10
s 1
f 5/77/20 6/78/20 7/79/21
f 8/80/22 7/79/21 6/78/20
f 7/79/21 8/80/22 127/81/23
f 128/82/23 127/81/23 8/80/22
f 245/83/24 246/84/25 247/85/26
f 248/86/27 247/85/26 246/84/25
f 246/84/25 251/87/28 248/86/27
f 252/88/29 248/86/27 251/87/28
f 251/87/28 255/89/30 252/88/29
f 256/90/31 252/88/29 255/89/30
f 259/91/32 260/92/32 255/89/30
f 256/90/31 255/89/30 260/92/32
f 263/93/33 264/94/33 259/91/32
f 260/92/32 259/91/32 264/94/33
f 267/95/34 268/96/34 263/93/33
f 264/94/33 263/93/33 268/96/34
f 271/97/35 272/98/35 267/95/34
f 268/96/34 267/95/34 272/98/35
f 275/99/36 276/100/37 271/97/35
f 272/98/35 271/97/35 276/100/37
f 279/101/38 280/102/38 275/99/36
f 276/100/37 275/99/36 280/102/38
f 127/81/23 128/82/23 279/101/38
f 280/102/38 279/101/38 128/82/23
usemtl PDM_Book_10_material_03
s off
f 13/103/12 14/104/12 15/105/12
f 16/106/11 17/107/11 18/108/11
f 17/107/11 16/106/11 19/109/11
f 17/107/11 19/109/11 20/110/11
f 17/107/14 20/110/14 21/111/14
f 21/111/11 20/110/11 22/112/11
f 21/111/10 22/112/10 23/113/10
f 23/113/11 22/112/11 24/114/11
f 24/114/11 22/112/11 25/115/11
f 24/114/11 25/115/11 26/116/11
f 26/116/11 25/115/11 27/117/11
f 27/117/14 25/115/14 28/118/14
f 27/117/10 28/118/10 29/119/10
f 27/117/10 29/119/10 30/120/10
f 27/117/11 30/120/11 31/121/11
f 31/121/11 30/120/11 32/122/11
f 31/121/10 32/122/10 33/123/10
f 31/121/11 33/123/11 15/105/11
f 31/121/14 15/105/14 34/124/14
f 34/124/14 15/105/14 35/125/14
f 35/125/39 15/105/39 14/104/39
f 34/124/40 35/125/40 36/126/40
f 34/124/41 36/126/41 37/127/41
f 34/124/12 37/127/12 38/128/12
f 34/124/42 38/128/42 39/129/42
f 34/124/16 39/129/16 40/130/16
f 34/124/11 40/130/11 41/131/11
f 41/131/12 40/130/12 42/132/12
f 41/131/11 42/132/11 43/133/11
f 41/131/14 43/133/14 44/134/14
f 44/134/10 43/133/10 45/135/10
f 45/135/12 43/133/12 46/136/12
f 45/135/11 46/136/11 47/137/11
f 47/137/10 46/136/10 48/138/10
f 47/137/14 48/138/14 49/139/14
f 49/139/12 48/138/12 50/140/12
f 130/141/3 131/142/3 132/143/3
f 131/142/2 130/141/2 133/144/2
f 133/144/4 130/141/4 134/145/4
f 134/145/3 130/141/3 135/146/3
f 134/145/2 135/146/2 136/147/2
f 136/147/2 135/146/2 137/148/2
f 136/147/4 137/148/4 138/149/4
f 136/147/3 138/149/3 139/150/3
f 139/150/2 138/149/2 140/151/2
f 139/150/2 140/151/2 141/152/2
f 139/150/2 141/152/2 142/153/2
f 142/153/2 141/152/2 143/154/2
f 143/154/4 141/152/4 144/155/4
f 144/155/2 141/152/2 145/156/2
f 144/155/2 145/156/2 146/157/2
f 146/157/2 145/156/2 147/158/2
f 147/158/2 145/156/2 148/159/2
f 148/159/2 145/156/2 149/160/2
f 148/159/2 149/160/2 150/161/2
f 148/159/9 150/161/9 151/162/9
f 150/161/8 149/160/8 152/163/8
f 152/163/7 149/160/7 153/164/7
f 153/164/2 149/160/2 154/165/2
f 154/165/5 149/160/5 155/166/5
f 155/166/43 149/160/43 156/167/43
f 156/167/4 149/160/4 157/168/4
f 156/167/2 157/168/2 158/169/2
f 158/169/2 157/168/2 159/170/2
f 159/170/2 157/168/2 160/171/2
f 159/170/2 160/171/2 161/172/2
f 159/170/44 161/172/44 162/173/44
f 162/173/3 161/172/3 163/174/3
f 162/173/44 163/174/44 164/175/44
f 164/175/1 163/174/1 165/176/1
f 164/175/2 165/176/2 166/177/2
f 167/178/2 148/159/2 151/162/2
s 1
f 1/179/45 2/180/46 3/181/47
f 2/180/46 1/179/45 4/182/45
f 3/183/47 125/184/48 126/185/48
f 125/184/48 3/183/47 2/186/46
f 241/187/49 242/188/50 243/189/51
f 242/188/50 241/187/49 244/190/52
f 249/191/53 243/192/51 250/193/54
f 243/192/51 249/191/53 241/194/49
f 253/195/55 250/196/54 254/197/56
f 250/196/54 253/195/55 249/198/53
f 257/199/57 253/200/55 254/201/56
f 253/200/55 257/199/57 258/202/57
f 261/203/58 258/204/57 257/205/57
f 258/204/57 261/203/58 262/206/58
f 265/207/59 262/208/58 261/209/58
f 262/208/58 265/207/59 266/210/60
f 269/211/61 266/212/60 265/213/59
f 266/212/60 269/211/61 270/214/61
f 273/215/62 270/216/61 269/217/61
f 270/216/61 273/215/62 274/218/63
f 277/219/64 274/220/63 273/221/62
f 274/220/63 277/219/64 278/222/64
f 126/223/48 278/224/64 277/225/64
f 278/224/64 126/223/48 125/226/48
l 9 10
l 9 11
l 11 12
l 10 12
l 89 90
l 90 91
l 91 92
l 92 93
l 93 94
l 94 95
l 95 96
l 96 97
l 97 98
l 98 99
l 99 100
l 100 101
l 101 102
l 102 103
l 103 104
l 104 105
l 105 106
l 106 107
l 107 9
l 10 108
l 108 109
l 109 110
l 110 111
l 111 112
l 112 113
l 113 114
l 114 115
l 115 116
l 116 117
l 117 118
l 118 119
l 119 120
l 120 121
l 121 122
l 122 123
l 123 124
l 124 89
l 107 129
l 129 11
l 206 207
l 208 206
l 209 208
l 210 209
l 211 210
l 212 211
l 213 212
l 214 213
l 215 214
l 216 215
l 217 216
l 218 217
l 219 218
l 220 219
l 221 220
l 222 221
l 223 222
l 224 223
l 225 224
l 226 225
l 227 226
l 228 227
l 229 228
l 12 229
l 230 129
l 231 230
l 232 231
l 233 232
l 234 233
l 235 234
l 236 235
l 237 236
l 238 237
l 239 238
l 240 239
l 207 240
l 97 239
l 98 238
l 99 237
l 100 236
l 101 235
l 102 234
l 103 233
l 104 232
l 105 231
l 106 230
