# Blender v2.91.2 OBJ File: 'fullblend.blend'
# www.blender.org
mtllib fanwings.mtl
o instance_0_ID56
v 0.041280 -0.247985 0.450000
v 0.028739 -0.247985 0.271649
v 0.040372 -0.252672 0.271713
v 0.040372 -0.252672 0.271713
v 0.028739 -0.247985 0.271649
v 0.041280 -0.247985 0.450000
v 0.040372 -0.252672 0.271713
v 0.041280 -0.247985 0.450000
v 0.028739 -0.247985 0.271649
v 0.040372 -0.252672 0.271713
v 0.042023 -0.246142 0.449948
v 0.041280 -0.247985 0.450000
v 0.041115 -0.250828 0.271661
v 0.041115 -0.250828 0.271661
v 0.040372 -0.252672 0.271713
v 0.042023 -0.246142 0.449948
v 0.041280 -0.247985 0.450000
v 0.041115 -0.250828 0.271661
v 0.042023 -0.246142 0.449948
v 0.028739 -0.247985 0.271649
v 0.042023 -0.246142 0.449948
v 0.041280 -0.247985 0.450000
v 0.041280 -0.247985 0.450000
v 0.042023 -0.246142 0.449948
v 0.028739 -0.247985 0.271649
v 0.041280 -0.247985 0.450000
v 0.010212 -0.248130 0.449948
v 0.028739 -0.247985 0.271649
v 0.028739 -0.247985 0.271649
v 0.010212 -0.248130 0.449948
v 0.041280 -0.247985 0.450000
v 0.010212 -0.248130 0.449948
v 0.029482 -0.246142 0.271597
v 0.040372 -0.252672 0.271713
v 0.028739 -0.247985 0.271649
v 0.028739 -0.247985 0.271649
v 0.040372 -0.252672 0.271713
v 0.029482 -0.246142 0.271597
v 0.029482 -0.246142 0.271597
v 0.042023 -0.246142 0.449948
v 0.041115 -0.250828 0.271661
v 0.032138 -0.246142 0.309367
v 0.032138 -0.246142 0.309367
v 0.041115 -0.250828 0.271661
v 0.042023 -0.246142 0.449948
v 0.032138 -0.246142 0.309367
v 0.042023 -0.246142 0.449948
v 0.010212 -0.248130 0.449948
v 0.041280 -0.247985 0.450000
v 0.041280 -0.247985 0.450000
v 0.010212 -0.248130 0.449948
v 0.042023 -0.246142 0.449948
v 0.029482 -0.246142 0.271597
v 0.041115 -0.250828 0.271661
v 0.040372 -0.252672 0.271713
v 0.040372 -0.252672 0.271713
v 0.041115 -0.250828 0.271661
v 0.029482 -0.246142 0.271597
v 0.028739 -0.247985 0.271649
v 0.032138 -0.246142 0.309367
v 0.042023 -0.246142 0.449948
v 0.042023 -0.246142 0.449948
v 0.032138 -0.246142 0.309367
v 0.028739 -0.247985 0.271649
v 0.010212 -0.248130 0.271597
v 0.010212 -0.248130 0.271597
v 0.010212 -0.248130 0.271597
v 0.029482 -0.246142 0.271597
v 0.032138 -0.246142 0.309367
v 0.028739 -0.247985 0.271649
v 0.028739 -0.247985 0.271649
v 0.032138 -0.246142 0.309367
v 0.029482 -0.246142 0.271597
v 0.029482 -0.246142 0.271597
v 0.028739 -0.247985 0.271649
v 0.010212 -0.246142 0.271597
v 0.010212 -0.246142 0.271597
v 0.028739 -0.247985 0.271649
v 0.029482 -0.246142 0.271597
v 0.010212 -0.246142 0.271597
v 0.041115 -0.250828 0.271661
v 0.029482 -0.246142 0.271597
v 0.032138 -0.246142 0.309367
v 0.032138 -0.246142 0.309367
v 0.029482 -0.246142 0.271597
v 0.041115 -0.250828 0.271661
v 0.010212 -0.246142 0.271597
v 0.032138 -0.246142 0.309367
v 0.029482 -0.246142 0.271597
v 0.042023 -0.246142 0.449948
v 0.042023 -0.246142 0.449948
v 0.010212 -0.246142 0.271597
v 0.032138 -0.246142 0.309367
v 0.029482 -0.246142 0.271597
v 0.010212 -0.246142 0.449948
v 0.010212 -0.246142 0.449948
v 0.010212 -0.246142 0.449948
v 0.010212 -0.248130 0.271597
v 0.010212 -0.248130 0.271597
v 0.010212 -0.246142 0.449948
v 0.010212 -0.248130 0.271597
v 0.010212 -0.248130 0.449948
v 0.010212 -0.246142 0.271597
v 0.010212 -0.246142 0.271597
v 0.010212 -0.246142 0.449948
v 0.010212 -0.248130 0.271597
v 0.010212 -0.248130 0.449948
v 0.042023 -0.246142 0.449948
v 0.010212 -0.246142 0.271597
v 0.010212 -0.246142 0.449948
v 0.010212 -0.246142 0.449948
v 0.010212 -0.246142 0.271597
v 0.042023 -0.246142 0.449948
vn -0.3737 -0.9272 0.0263
vn 0.3737 0.9272 -0.0263
vn 0.9275 -0.3737 0.0051
vn -0.9275 0.3737 -0.0051
vn 0.9249 -0.3746 -0.0650
vn -0.9249 0.3746 0.0650
vn 0.0047 -1.0000 -0.0003
vn -0.0047 1.0000 0.0003
vn -0.0051 -0.0263 -0.9996
vn 0.0051 0.0263 0.9996
vn 0.0078 -1.0000 0.0000
vn -0.0078 1.0000 0.0000
vn 0.0000 1.0000 -0.0000
vn 0.0000 -1.0000 -0.0000
vn -1.0000 0.0000 0.0000
vn 1.0000 0.0000 0.0000
vn -0.0017 0.0275 0.9996
vn -0.0001 0.0011 1.0000
vn -0.0018 0.0291 0.9996
vn 0.0018 -0.0291 -0.9996
vn 0.0001 -0.0011 -1.0000
vn 0.0017 -0.0275 -0.9996
vn 0.0000 -0.0283 -0.9996
vn 0.0002 -0.0268 -0.9996
vn 0.0026 -0.0018 -1.0000
vn -0.0026 0.0018 1.0000
vn -0.0002 0.0268 0.9996
vn 0.0000 0.0283 0.9996
vn 0.0000 0.0000 1.0000
vn 0.0000 0.0000 -1.0000
vn 0.0028 0.0000 -1.0000
vn -0.0028 0.0000 1.0000
usemtl (null)
s off
f 1//1 2//1 3//1
f 4//2 5//2 6//2
f 10//3 11//3 12//3
f 11//3 10//3 13//3
f 14//4 15//4 16//4
f 17//4 16//4 15//4
f 20//5 21//5 22//5
f 23//6 24//6 25//6
f 26//7 27//7 28//7
f 29//8 30//8 31//8
f 33//9 34//9 35//9
f 36//10 37//10 38//10
f 40//2 41//2 42//2
f 43//1 44//1 45//1
f 53//9 54//9 55//9
f 56//10 57//10 58//10
f 59//5 60//5 61//5
f 62//6 63//6 64//6
f 28//11 27//11 65//11
f 66//12 30//12 29//12
f 68//5 69//5 70//5
f 71//6 72//6 73//6
f 81//2 82//2 83//2
f 84//1 85//1 86//1
f 87//13 88//13 89//13
f 88//13 87//13 90//13
f 91//14 92//14 93//14
f 94//14 93//14 92//14
f 100//15 101//15 102//15
f 101//15 100//15 103//15
f 104//16 105//16 106//16
f 107//16 106//16 105//16
f 108//13 109//13 110//13
f 111//14 112//14 113//14
s 1
f 47//17 48//18 49//19
f 50//20 51//21 52//22
f 74//23 75//24 76//25
f 77//26 78//27 79//28
f 95//29 48//18 47//17
f 52//22 51//21 96//30
f 76//25 75//24 98//31
f 99//32 78//27 77//26
l 7 8
l 8 9
l 7 9
l 18 19
l 8 19
l 7 18
l 8 32
l 9 39
l 19 46
l 18 39
l 9 67
l 67 32
l 46 39
l 39 80
l 32 97
l 19 97
l 67 80
l 80 97
l 9 19
l 9 32
l 39 7
l 46 18
l 19 32
l 9 46
l 80 9
l 19 80
o instance_1_ID56
v 0.196747 -0.247985 0.128199
v 0.048561 -0.247985 0.228236
v 0.042800 -0.252672 0.218130
v 0.042800 -0.252672 0.218130
v 0.048561 -0.247985 0.228236
v 0.196747 -0.247985 0.128199
v 0.042800 -0.252672 0.218130
v 0.196747 -0.247985 0.128199
v 0.048561 -0.247985 0.228236
v 0.042800 -0.252672 0.218130
v 0.196330 -0.246142 0.127582
v 0.196747 -0.247985 0.128199
v 0.042383 -0.250828 0.217513
v 0.042383 -0.250828 0.217513
v 0.042800 -0.252672 0.218130
v 0.196330 -0.246142 0.127582
v 0.196747 -0.247985 0.128199
v 0.042383 -0.250828 0.217513
v 0.196330 -0.246142 0.127582
v 0.048561 -0.247985 0.228236
v 0.196330 -0.246142 0.127582
v 0.196747 -0.247985 0.128199
v 0.196747 -0.247985 0.128199
v 0.196330 -0.246142 0.127582
v 0.048561 -0.247985 0.228236
v 0.196747 -0.247985 0.128199
v 0.212236 -0.248130 0.155131
v 0.048561 -0.247985 0.228236
v 0.048561 -0.247985 0.228236
v 0.212236 -0.248130 0.155131
v 0.196747 -0.247985 0.128199
v 0.212236 -0.248130 0.155131
v 0.048144 -0.246142 0.227619
v 0.042800 -0.252672 0.218130
v 0.048561 -0.247985 0.228236
v 0.048561 -0.247985 0.228236
v 0.042800 -0.252672 0.218130
v 0.048144 -0.246142 0.227619
v 0.048144 -0.246142 0.227619
v 0.196330 -0.246142 0.127582
v 0.042383 -0.250828 0.217513
v 0.079526 -0.246142 0.206434
v 0.079526 -0.246142 0.206434
v 0.042383 -0.250828 0.217513
v 0.196330 -0.246142 0.127582
v 0.079526 -0.246142 0.206434
v 0.196330 -0.246142 0.127582
v 0.212236 -0.248130 0.155131
v 0.196747 -0.247985 0.128199
v 0.196747 -0.247985 0.128199
v 0.212236 -0.248130 0.155131
v 0.196330 -0.246142 0.127582
v 0.048144 -0.246142 0.227619
v 0.042383 -0.250828 0.217513
v 0.042800 -0.252672 0.218130
v 0.042800 -0.252672 0.218130
v 0.042383 -0.250828 0.217513
v 0.048144 -0.246142 0.227619
v 0.048561 -0.247985 0.228236
v 0.079526 -0.246142 0.206434
v 0.196330 -0.246142 0.127582
v 0.196330 -0.246142 0.127582
v 0.079526 -0.246142 0.206434
v 0.048561 -0.247985 0.228236
v 0.057779 -0.248130 0.244307
v 0.057779 -0.248130 0.244307
v 0.057779 -0.248130 0.244307
v 0.048144 -0.246142 0.227619
v 0.079526 -0.246142 0.206434
v 0.048561 -0.247985 0.228236
v 0.048561 -0.247985 0.228236
v 0.079526 -0.246142 0.206434
v 0.048144 -0.246142 0.227619
v 0.048144 -0.246142 0.227619
v 0.048561 -0.247985 0.228236
v 0.057779 -0.246142 0.244307
v 0.057779 -0.246142 0.244307
v 0.048561 -0.247985 0.228236
v 0.048144 -0.246142 0.227619
v 0.057779 -0.246142 0.244307
v 0.042383 -0.250828 0.217513
v 0.048144 -0.246142 0.227619
v 0.079526 -0.246142 0.206434
v 0.079526 -0.246142 0.206434
v 0.048144 -0.246142 0.227619
v 0.042383 -0.250828 0.217513
v 0.057779 -0.246142 0.244307
v 0.079526 -0.246142 0.206434
v 0.048144 -0.246142 0.227619
v 0.196330 -0.246142 0.127582
v 0.196330 -0.246142 0.127582
v 0.057779 -0.246142 0.244307
v 0.079526 -0.246142 0.206434
v 0.048144 -0.246142 0.227619
v 0.212236 -0.246142 0.155131
v 0.212236 -0.246142 0.155131
v 0.212236 -0.246142 0.155131
v 0.057779 -0.248130 0.244307
v 0.057779 -0.248130 0.244307
v 0.212236 -0.246142 0.155131
v 0.057779 -0.248130 0.244307
v 0.212236 -0.248130 0.155131
v 0.057779 -0.246142 0.244307
v 0.057779 -0.246142 0.244307
v 0.212236 -0.246142 0.155131
v 0.057779 -0.248130 0.244307
v 0.212236 -0.248130 0.155131
v 0.196330 -0.246142 0.127582
v 0.057779 -0.246142 0.244307
v 0.212236 -0.246142 0.155131
v 0.212236 -0.246142 0.155131
v 0.057779 -0.246142 0.244307
v 0.196330 -0.246142 0.127582
vn 0.2096 -0.9272 0.3105
vn -0.2096 0.9272 -0.3105
vn -0.4594 -0.3737 -0.8058
vn 0.4593 0.3737 0.8058
vn 0.4594 0.3737 0.8058
vn -0.5188 -0.3746 -0.7685
vn 0.5188 0.3746 0.7685
vn -0.0026 -1.0000 -0.0039
vn 0.0026 1.0000 0.0039
vn -0.8632 -0.0263 0.5042
vn 0.8632 0.0263 -0.5042
vn -0.0039 -1.0000 -0.0068
vn 0.0039 1.0000 0.0068
vn 0.0000 1.0000 0.0000
vn 0.0000 -1.0000 0.0000
vn 0.5000 0.0000 0.8660
vn -0.5000 0.0000 -0.8660
vn 0.8665 0.0275 -0.4983
vn 0.8661 0.0011 -0.4999
vn 0.8666 0.0290 -0.4982
vn -0.8665 -0.0290 0.4982
vn -0.8661 -0.0011 0.4999
vn -0.8665 -0.0275 0.4983
vn -0.8657 -0.0283 0.4998
vn -0.8658 -0.0268 0.4997
vn -0.8673 -0.0018 0.4977
vn 0.8673 0.0018 -0.4977
vn 0.8658 0.0268 -0.4997
vn 0.8657 0.0283 -0.4998
vn 0.8660 0.0000 -0.5000
vn -0.8660 0.0000 0.5000
vn -0.8674 0.0000 0.4975
vn 0.8674 0.0000 -0.4975
usemtl (null)
s off
f 114//33 115//33 116//33
f 117//34 118//34 119//34
f 123//35 124//35 125//35
f 124//35 123//35 126//35
f 127//36 128//36 129//36
f 130//37 129//37 128//37
f 133//38 134//38 135//38
f 136//39 137//39 138//39
f 139//40 140//40 141//40
f 142//41 143//41 144//41
f 146//42 147//42 148//42
f 149//43 150//43 151//43
f 153//34 154//34 155//34
f 156//33 157//33 158//33
f 166//42 167//42 168//42
f 169//43 170//43 171//43
f 172//38 173//38 174//38
f 175//39 176//39 177//39
f 141//44 140//44 178//44
f 179//45 143//45 142//45
f 181//38 182//38 183//38
f 184//39 185//39 186//39
f 194//34 195//34 196//34
f 197//33 198//33 199//33
f 200//46 201//46 202//46
f 201//46 200//46 203//46
f 204//47 205//47 206//47
f 207//47 206//47 205//47
f 213//48 214//48 215//48
f 214//48 213//48 216//48
f 217//49 218//49 219//49
f 220//49 219//49 218//49
f 221//46 222//46 223//46
f 224//47 225//47 226//47
s 1
f 160//50 161//51 162//52
f 163//53 164//54 165//55
f 187//56 188//57 189//58
f 190//59 191//60 192//61
f 208//62 161//51 160//50
f 165//55 164//54 209//63
f 189//58 188//57 211//64
f 212//65 191//60 190//59
l 120 121
l 121 122
l 120 122
l 131 132
l 121 132
l 120 131
l 121 145
l 122 152
l 132 159
l 131 152
l 122 180
l 180 145
l 159 152
l 152 193
l 145 210
l 132 210
l 180 193
l 193 210
l 122 132
l 122 145
l 152 120
l 159 131
l 132 145
l 122 159
l 193 122
l 132 193
o instance_2_ID56
v -0.159674 -0.247985 0.154462
v 0.001054 -0.247985 0.232776
v -0.004818 -0.252672 0.242818
v -0.004818 -0.252672 0.242818
v 0.001054 -0.247985 0.232776
v -0.159674 -0.247985 0.154462
v -0.004818 -0.252672 0.242818
v -0.159674 -0.247985 0.154462
v 0.001054 -0.247985 0.232776
v -0.004818 -0.252672 0.242818
v -0.160000 -0.246142 0.155131
v -0.159674 -0.247985 0.154462
v -0.005144 -0.250828 0.243488
v -0.005144 -0.250828 0.243488
v -0.004818 -0.252672 0.242818
v -0.160000 -0.246142 0.155131
v -0.159674 -0.247985 0.154462
v -0.005144 -0.250828 0.243488
v -0.160000 -0.246142 0.155131
v 0.001054 -0.247985 0.232776
v -0.160000 -0.246142 0.155131
v -0.159674 -0.247985 0.154462
v -0.159674 -0.247985 0.154462
v -0.160000 -0.246142 0.155131
v 0.001054 -0.247985 0.232776
v -0.159674 -0.247985 0.154462
v -0.144095 -0.248130 0.127582
v 0.001054 -0.247985 0.232776
v 0.001054 -0.247985 0.232776
v -0.144095 -0.248130 0.127582
v -0.159674 -0.247985 0.154462
v -0.144095 -0.248130 0.127582
v 0.000727 -0.246142 0.233446
v -0.004818 -0.252672 0.242818
v 0.001054 -0.247985 0.232776
v 0.001054 -0.247985 0.232776
v -0.004818 -0.252672 0.242818
v 0.000727 -0.246142 0.233446
v 0.000727 -0.246142 0.233446
v -0.160000 -0.246142 0.155131
v -0.005144 -0.250828 0.243488
v -0.033311 -0.246142 0.216861
v -0.033311 -0.246142 0.216861
v -0.005144 -0.250828 0.243488
v -0.160000 -0.246142 0.155131
v -0.033311 -0.246142 0.216861
v -0.160000 -0.246142 0.155131
v -0.144095 -0.248130 0.127582
v -0.159674 -0.247985 0.154462
v -0.159674 -0.247985 0.154462
v -0.144095 -0.248130 0.127582
v -0.160000 -0.246142 0.155131
v 0.000727 -0.246142 0.233446
v -0.005144 -0.250828 0.243488
v -0.004818 -0.252672 0.242818
v -0.004818 -0.252672 0.242818
v -0.005144 -0.250828 0.243488
v 0.000727 -0.246142 0.233446
v 0.001054 -0.247985 0.232776
v -0.033311 -0.246142 0.216861
v -0.160000 -0.246142 0.155131
v -0.160000 -0.246142 0.155131
v -0.033311 -0.246142 0.216861
v 0.001054 -0.247985 0.232776
v 0.010362 -0.248130 0.216758
v 0.010362 -0.248130 0.216758
v 0.010362 -0.248130 0.216758
v 0.000727 -0.246142 0.233446
v -0.033311 -0.246142 0.216861
v 0.001054 -0.247985 0.232776
v 0.001054 -0.247985 0.232776
v -0.033311 -0.246142 0.216861
v 0.000727 -0.246142 0.233446
v 0.000727 -0.246142 0.233446
v 0.001054 -0.247985 0.232776
v 0.010362 -0.246142 0.216758
v 0.010362 -0.246142 0.216758
v 0.001054 -0.247985 0.232776
v 0.000727 -0.246142 0.233446
v 0.010362 -0.246142 0.216758
v -0.005144 -0.250828 0.243488
v 0.000727 -0.246142 0.233446
v -0.033311 -0.246142 0.216861
v -0.033311 -0.246142 0.216861
v 0.000727 -0.246142 0.233446
v -0.005144 -0.250828 0.243488
v 0.010362 -0.246142 0.216758
v -0.033311 -0.246142 0.216861
v 0.000727 -0.246142 0.233446
v -0.160000 -0.246142 0.155131
v -0.160000 -0.246142 0.155131
v 0.010362 -0.246142 0.216758
v -0.033311 -0.246142 0.216861
v 0.000727 -0.246142 0.233446
v -0.144095 -0.246142 0.127582
v -0.144095 -0.246142 0.127582
v -0.144095 -0.246142 0.127582
v 0.010362 -0.248130 0.216758
v 0.010362 -0.248130 0.216758
v -0.144095 -0.246142 0.127582
v 0.010362 -0.248130 0.216758
v -0.144095 -0.248130 0.127582
v 0.010362 -0.246142 0.216758
v 0.010362 -0.246142 0.216758
v -0.144095 -0.246142 0.127582
v 0.010362 -0.248130 0.216758
v -0.144095 -0.248130 0.127582
v -0.160000 -0.246142 0.155131
v 0.010362 -0.246142 0.216758
v -0.144095 -0.246142 0.127582
v -0.144095 -0.246142 0.127582
v 0.010362 -0.246142 0.216758
v -0.160000 -0.246142 0.155131
vn 0.1641 -0.9272 -0.3368
vn -0.1641 0.9272 0.3368
vn -0.4682 -0.3737 0.8007
vn 0.4682 0.3737 -0.8007
vn -0.4061 -0.3746 0.8335
vn 0.4061 0.3746 -0.8335
vn -0.0020 -1.0000 0.0042
vn 0.0020 1.0000 -0.0042
vn 0.8683 -0.0263 0.4954
vn -0.8683 0.0263 -0.4954
vn -0.0039 -1.0000 0.0068
vn 0.0039 1.0000 -0.0068
vn 0.0000 1.0000 -0.0000
vn 0.0000 -1.0000 0.0000
vn 0.5000 0.0000 -0.8660
vn -0.5000 0.0000 0.8660
vn -0.8648 0.0275 -0.5013
vn -0.8660 0.0011 -0.5000
vn -0.8647 0.0291 -0.5013
vn 0.8647 -0.0291 0.5013
vn 0.8660 -0.0011 0.5000
vn 0.8648 -0.0275 0.5013
vn 0.8657 -0.0283 0.4998
vn 0.8656 -0.0268 0.5000
vn 0.8647 -0.0018 0.5023
vn -0.8647 0.0018 -0.5023
vn -0.8656 0.0268 -0.4999
vn -0.8657 0.0283 -0.4998
vn -0.8660 0.0000 -0.5000
vn 0.8660 0.0000 0.5000
vn 0.8646 0.0000 0.5024
vn -0.8646 0.0000 -0.5024
usemtl (null)
s off
f 227//66 228//66 229//66
f 230//67 231//67 232//67
f 236//68 237//68 238//68
f 237//68 236//68 239//68
f 240//69 241//69 242//69
f 243//69 242//69 241//69
f 246//70 247//70 248//70
f 249//71 250//71 251//71
f 252//72 253//72 254//72
f 255//73 256//73 257//73
f 259//74 260//74 261//74
f 262//75 263//75 264//75
f 266//67 267//67 268//67
f 269//66 270//66 271//66
f 279//74 280//74 281//74
f 282//75 283//75 284//75
f 285//70 286//70 287//70
f 288//71 289//71 290//71
f 254//76 253//76 291//76
f 292//77 256//77 255//77
f 294//70 295//70 296//70
f 297//71 298//71 299//71
f 307//67 308//67 309//67
f 310//66 311//66 312//66
f 313//78 314//78 315//78
f 314//78 313//78 316//78
f 317//79 318//79 319//79
f 320//79 319//79 318//79
f 326//80 327//80 328//80
f 327//80 326//80 329//80
f 330//81 331//81 332//81
f 333//81 332//81 331//81
f 334//78 335//78 336//78
f 337//79 338//79 339//79
s 1
f 273//82 274//83 275//84
f 276//85 277//86 278//87
f 300//88 301//89 302//90
f 303//91 304//92 305//93
f 321//94 274//83 273//82
f 278//87 277//86 322//95
f 302//90 301//89 324//96
f 325//97 304//92 303//91
l 233 234
l 234 235
l 233 235
l 244 245
l 234 245
l 233 244
l 234 258
l 235 265
l 245 272
l 244 265
l 235 293
l 293 258
l 272 265
l 265 306
l 258 323
l 245 323
l 293 306
l 306 323
l 235 245
l 235 258
l 265 233
l 272 244
l 245 258
l 235 272
l 306 235
l 245 306
