# Blender v2.91.2 OBJ File: 'fullblend.blend'
# www.blender.org
mtllib floor.mtl
o Cube.004_Cube.006
v 0.564753 0.352388 2.185836
v 0.565041 0.310375 2.184746
v 2.219835 0.325453 0.528086
v 2.219547 0.367466 0.529177
v -1.081904 0.166461 0.539766
v 0.572889 0.181538 -1.116895
v -1.082193 0.208473 0.540855
v 0.572601 0.223551 -1.115805
vt 0.375000 0.000000
vt 0.375000 0.250000
vt 0.625000 0.250000
vt 0.625000 0.000000
vt 0.375000 0.500000
vt 0.625000 0.500000
vt 0.375000 0.750000
vt 0.625000 0.750000
vt 0.375000 1.000000
vt 0.625000 1.000000
vt 0.125000 0.500000
vt 0.125000 0.750000
vt 0.875000 0.750000
vt 0.875000 0.500000
vn 0.7075 -0.0135 0.7066
vn 0.0482 -0.9981 0.0391
vn -0.7075 0.0135 -0.7066
vn -0.0482 0.9981 -0.0391
vn -0.7055 -0.0232 0.7084
vn 0.7055 0.0232 -0.7084
usemtl None
s 1
f 1/1/1 2/2/1 3/3/1 4/4/1
f 2/2/2 5/5/2 6/6/2 3/3/2
f 5/5/3 7/7/3 8/8/3 6/6/3
f 7/7/4 1/9/4 4/10/4 8/8/4
f 2/11/5 1/12/5 7/7/5 5/5/5
f 6/6/6 8/8/6 4/13/6 3/14/6
